<?xml version="1.0" standalone="no"?><!DOCTYPE svg PUBLIC "-//W3C//DTD SVG 1.1//EN" "http://www.w3.org/Graphics/SVG/1.1/DTD/svg11.dtd"><svg t="1506086383073" class="icon" style="" viewBox="0 0 1024 1024" version="1.1" xmlns="http://www.w3.org/2000/svg" p-id="2421" xmlns:xlink="http://www.w3.org/1999/xlink" width="70" height="70"><defs><style type="text/css"></style></defs><path d="M750.55 314.559c-14.462-8.337-29.752-15.284-44.676-22.886 2.947-3.317 5.507-5.647 8.028-8.018 25.902-24.377 49.157-52.578 61.31-85.848 5.892-16.129 7.347-23.147 11.436-38.122 7.611-47.279-1.137-76.026-29.665-99.92-38.553-32.294-82.296-36.118-128.504-17.16-3.206 1.314-5.333 2.274-8.528-0.704-59.474-55.404-154.954-55.921-214.839-1.218-2.798 2.556-4.814 3.202-8.446 1.555-24.301-11.013-49.699-13.371-75.771-8.064-49.404 10.059-90.273 51.462-83.022 108.005 6.292 49.059 25.594 91.512 58.872 128.107 6.83 7.511 14.09 14.645 21.439 22.247-1.832 0.874-3.646 1.789-5.493 2.622C142.708 371.726 27.887 538.099 14.442 727.343c-3.718 52.331-5.389 99.262 12.729 155.462 25.605 79.424 93.19 141.389 179.854 141.192 204.228-0.464 408.46 0.047 612.688-0.263 65.608-0.1 116.119-29.108 152.763-81.929 18.627-26.851 25.367-57.738 32.41-89.285 2.87-12.854 6.209 12.294 6.209-42.221s-1.137-121.45-16.607-178.326c-37.589-138.186-118.09-244.865-243.941-317.416z m208.226 500.084c-4.48 29.182-9.324 59.783-25.773 84.314-32.36 48.257-94.358 74.759-152.296 74.851-180.355 0.283-360.714-0.184-541.068 0.24-76.534 0.179-148.719-42.405-167.271-116.252-11.779-46.883-10.507-105.535-7.223-153.344C77.02 531.559 233.45 368.518 383.561 298.564c1.632-0.761-43.265-40.121-49.298-46.983-29.389-33.432-47.741-60.506-53.297-105.325-6.822-55.026 34.328-71.263 59.231-76.509 23.025-4.851 71.901 19.709 74.372 17.373 52.884-49.977 137.202-49.504 189.725 1.113 2.821 2.721 4.7 1.844 7.531 0.643 40.807-17.319 75.316-27.997 109.363 1.507 25.194 21.831 25.782 38.049 19.603 72.327-3.756 14.227-27.056 52.261-35.953 64.047-32.878 43.552-65.058 71.346-67.276 73.52-0.239 0.234 70.273 33.332 82.062 42.314 108.849 82.924 182.231 147.062 215.426 273.308 17.44 66.326 34.143 130.873 23.725 198.746z m-512.392-354.96c-8.385-8.85-33.851-35.035-33.851-35.035h-49.951s0.168 17.075 0.168 22.16c0 5.085 124.528 127.701 124.528 127.701H362.582v49.881h124.696v50.25H362.75v49.585h124.71v99.97h49.951l-0.447-99.97h125.325v-49.884H537.411l-0.447-49.951h125.158v-49.881H536.964l125.158-127.701v-22.16h-49.783s-43.375 41.956-52.863 52.398c-3.955 3.339-32.786 34.137-47.043 48.299l-66.049-65.661z" fill="#2693d4" p-id="2422"></path></svg>