<?xml version="1.0" standalone="no"?><!DOCTYPE svg PUBLIC "-//W3C//DTD SVG 1.1//EN" "http://www.w3.org/Graphics/SVG/1.1/DTD/svg11.dtd"><svg t="1505648495372" class="icon" style="" viewBox="0 0 2713 1024" version="1.1" xmlns="http://www.w3.org/2000/svg" p-id="7431" xmlns:xlink="http://www.w3.org/1999/xlink" width="161" height="50"><defs><style type="text/css"></style></defs><path d="M1856 253.44c10.24 20.48 7.68 17.92 20.48 20.48h30.72c-7.68-10.24-12.8-30.72-17.92-38.4-2.56-5.12-7.68-5.12-12.8-5.12H1843.2c5.12 5.12 7.68 15.36 12.8 23.04z" fill="#17305E" p-id="7432"></path><path d="M1228.8 568.32z m10.24 0H1228.8h10.24z" fill="#024481" p-id="7433"></path><path d="M235.52 186.88h258.56c15.36 0 33.28 7.68 43.52 20.48 10.24 12.8 12.8 30.72 7.68 46.08l-120.32 519.68c-10.24 38.4-43.52 64-81.92 66.56H81.92c-15.36 0-33.28-7.68-43.52-20.48-10.24-12.8-12.8-30.72-7.68-46.08L153.6 253.44c10.24-38.4 43.52-64 81.92-66.56z" fill="#DD2322" p-id="7434"></path><path d="M473.6 186.88h296.96c35.84 0 20.48 30.72 10.24 66.56l-120.32 519.68c-7.68 35.84-5.12 66.56-40.96 66.56H320c-15.36 0-33.28-7.68-43.52-20.48-10.24-12.8-12.8-30.72-7.68-46.08l120.32-519.68c12.8-38.4 46.08-64 84.48-66.56z" fill="#17305E" p-id="7435"></path><path d="M760.32 186.88h258.56c15.36 0 33.28 7.68 43.52 20.48 10.24 12.8 12.8 30.72 7.68 46.08l-120.32 519.68c-10.24 38.4-43.52 64-81.92 66.56H609.28c-15.36 0-33.28-7.68-43.52-20.48-10.24-12.8-12.8-30.72-7.68-46.08l120.32-519.68c10.24-38.4 43.52-64 81.92-66.56z" fill="#026862" p-id="7436"></path><path d="M716.8 675.84h25.6l7.68-23.04h-25.6l-7.68 23.04z m17.92-66.56l-7.68 28.16c5.12-2.56 10.24-5.12 15.36-5.12 5.12-2.56 12.8-2.56 12.8-2.56l5.12-20.48h-25.6z m12.8-38.4l-7.68 28.16c5.12-2.56 10.24-5.12 12.8-7.68 5.12 0 7.68-2.56 12.8-2.56l5.12-20.48-23.04 2.56z m53.76 0l-30.72 104.96h7.68l-7.68 20.48h-7.68l-2.56 7.68h-30.72l2.56-7.68h-61.44l5.12-20.48h5.12l33.28-107.52 7.68-20.48h30.72l-2.56 10.24 15.36-7.68c7.68-2.56 51.2-2.56 51.2-2.56l-7.68 20.48-7.68 2.56z" fill="#FFFFFF" p-id="7437"></path><path d="M816.64 547.84h33.28v12.8c0 2.56 2.56 2.56 5.12 2.56h7.68l-5.12 20.48h-17.92c-15.36 0-20.48-5.12-20.48-12.8l-2.56-23.04z m2.56 97.28h-30.72l5.12-17.92h35.84l5.12-15.36h-35.84l5.12-20.48h97.28l-5.12 20.48h-33.28l-5.12 15.36h33.28l-5.12 17.92h-35.84l-5.12 7.68h15.36l2.56 23.04v5.12c2.56 0 5.12 2.56 7.68 0h5.12l-5.12 20.48h-17.92c-2.56 0-5.12-2.56-7.68-2.56-2.56-2.56-5.12-5.12-5.12-7.68l-2.56-23.04-20.48 23.04c-5.12 7.68-15.36 12.8-23.04 12.8h-23.04l5.12-20.48h7.68c2.56 0 5.12 0 5.12-2.56 2.56 0 2.56-2.56 5.12-5.12l25.6-30.72z m-340.48-51.2h81.92l-5.12 20.48h-33.28l-5.12 17.92h33.28l-5.12 20.48H512l-7.68 28.16c0 2.56 7.68 2.56 10.24 2.56l17.92-2.56-7.68 23.04h-46.08c-2.56 0-5.12-2.56-5.12-5.12-2.56-2.56-2.56-5.12-2.56-7.68l10.24-35.84H460.8l5.12-20.48h20.48l5.12-17.92h-20.48l7.68-23.04z m53.76-33.28h33.28l-5.12 20.48h-46.08l-5.12 5.12c-2.56 0-2.56 2.56-5.12 2.56-5.12 2.56-10.24 5.12-15.36 5.12h-15.36l5.12-20.48h12.8c2.56-2.56 5.12-5.12 5.12-7.68l7.68-15.36H537.6l-5.12 10.24zM599.04 593.92c7.68-5.12 15.36-10.24 25.6-10.24h25.6l2.56-10.24h-48.64l-5.12 20.48z m43.52 7.68h-48.64l-2.56 10.24h46.08l5.12-10.24z m-61.44-53.76h28.16l-2.56 15.36c5.12-2.56 10.24-7.68 15.36-10.24 7.68-2.56 12.8-2.56 20.48-5.12h46.08l-15.36 53.76c-2.56 5.12-5.12 12.8-7.68 17.92l-7.68 7.68c-2.56 2.56-7.68 2.56-10.24 2.56H588.8l-12.8 40.96v7.68c0 2.56 2.56 2.56 5.12 2.56l20.48-2.56-7.68 23.04h-38.4c-2.56 0-7.68 0-10.24-2.56-2.56-2.56-5.12-5.12-5.12-7.68 0-2.56 2.56-7.68 2.56-10.24l38.4-133.12z" fill="#FFFFFF" p-id="7438"></path><path d="M665.6 634.88l-2.56 12.8c0 2.56-2.56 7.68-5.12 10.24-5.12 5.12-10.24 5.12-15.36 5.12h-15.36v15.36c0 5.12 0 2.56 2.56 5.12 0 0 2.56 0 2.56 2.56h20.48l-7.68 20.48h-17.92c-7.68 0-17.92 0-25.6-2.56-2.56-2.56-5.12-5.12-2.56-7.68V640h28.16v10.24h12.8l2.56-2.56 2.56-10.24 20.48-2.56m-399.36-281.6c0 5.12-20.48 87.04-20.48 87.04 0 12.8-7.68 25.6-15.36 35.84-5.12 5.12-12.8 7.68-20.48 7.68-5.12 0-10.24 0-12.8-5.12-2.56-2.56-5.12-7.68-5.12-12.8V460.8l2.56-23.04s20.48-76.8 23.04-87.04H174.08v5.12L153.6 440.32l-2.56 7.68-2.56 23.04c0 5.12 0 12.8 5.12 17.92 7.68 15.36 33.28 17.92 48.64 17.92 15.36 0 33.28-2.56 46.08-10.24 17.92-10.24 28.16-28.16 30.72-48.64l2.56-7.68s20.48-79.36 23.04-89.6c-15.36 2.56-28.16 2.56-38.4 2.56z m107.52 156.16h-33.28l5.12-17.92 2.56-7.68c2.56-12.8 5.12-25.6 5.12-30.72v-5.12c0-2.56-2.56-2.56-5.12-2.56s-7.68 2.56-10.24 2.56c-2.56 7.68-5.12 25.6-7.68 33.28-2.56 17.92-5.12 20.48-5.12 28.16h-33.28l7.68-30.72c5.12-17.92 7.68-35.84 10.24-53.76 15.36-2.56 20.48-2.56 35.84-5.12l2.56 2.56-2.56 10.24c2.56-2.56 5.12-2.56 7.68-5.12 7.68-2.56 12.8-5.12 20.48-5.12 7.68 0 15.36 2.56 17.92 10.24 2.56 10.24 2.56 23.04-2.56 33.28l-5.12 5.12c-5.12 20.48-5.12 23.04-7.68 38.4h-2.56m51.2 0h-35.84c0-5.12 2.56-10.24 2.56-12.8 2.56-5.12 2.56-7.68 2.56-12.8 2.56-10.24 2.56-17.92 5.12-23.04 0-5.12 2.56-10.24 2.56-17.92l17.92-2.56 17.92-2.56c-2.56 5.12-2.56 12.8-5.12 20.48l2.56 15.36c-2.56 12.8-5.12 17.92-5.12 20.48 0 5.12 0 7.68-5.12 15.36m84.48-46.08c-2.56 7.68-5.12 15.36-7.68 20.48-2.56 2.56-5.12 5.12-10.24 5.12-2.56 0-5.12 0-5.12-2.56-2.56-2.56-2.56-5.12-2.56-7.68 0-5.12 0-10.24 2.56-15.36 2.56-15.36 7.68-28.16 17.92-28.16 10.24 2.56 7.68 12.8 5.12 28.16z m33.28 0c5.12-12.8 2.56-25.6-2.56-35.84-7.68-7.68-20.48-12.8-30.72-10.24-15.36 0-28.16 5.12-38.4 12.8-10.24 10.24-15.36 20.48-17.92 33.28-2.56 12.8-5.12 33.28 15.36 43.52 7.68 2.56 12.8 2.56 20.48 2.56 15.36 0 30.72-5.12 40.96-15.36 5.12-7.68 10.24-17.92 12.8-30.72z m340.48-46.08c-15.36 2.56-20.48 2.56-35.84 5.12v2.56c-2.56-5.12-7.68-7.68-10.24-10.24-12.8-2.56-28.16 2.56-38.4 12.8-10.24 10.24-15.36 20.48-17.92 33.28-2.56 12.8-5.12 33.28 15.36 40.96 5.12 2.56 12.8 2.56 17.92 2.56 7.68 0 12.8-2.56 17.92-7.68l-2.56 5.12h38.4c2.56-12.8 5.12-25.6 10.24-53.76l5.12-30.72m-51.2 69.12c-2.56 2.56-7.68 5.12-12.8 5.12-2.56 0-5.12 0-5.12-2.56-2.56-2.56-2.56-5.12-2.56-7.68 0-5.12 0-10.24 2.56-15.36 2.56-15.36 7.68-28.16 17.92-28.16 7.68 0 10.24 5.12 10.24 15.36l-2.56 7.68c0 5.12-2.56 7.68-2.56 12.8-2.56 7.68-5.12 10.24-5.12 12.8z m-199.68 23.04h-33.28l5.12-17.92 2.56-7.68c2.56-12.8 5.12-25.6 5.12-30.72v-5.12c0-2.56-2.56-2.56-5.12-2.56s-7.68 2.56-10.24 2.56c-2.56 7.68-5.12 25.6-7.68 33.28-2.56 17.92-5.12 20.48-5.12 28.16h-33.28l7.68-30.72c5.12-17.92 7.68-35.84 10.24-53.76 15.36-2.56 20.48-2.56 35.84-5.12l2.56 2.56-2.56 10.24 7.68-5.12c7.68-2.56 12.8-5.12 20.48-5.12 7.68 0 15.36 2.56 17.92 10.24 2.56 12.8 0 23.04-2.56 33.28l-2.56 10.24c-5.12 20.48-5.12 23.04-7.68 38.4l-5.12-5.12m112.64-156.16H691.2l-2.56 5.12-10.24 46.08-25.6 104.96H691.2c0-5.12 7.68-33.28 7.68-33.28l5.12-20.48 2.56-2.56h2.56c23.04 2.56 43.52-2.56 64-12.8 12.8-10.24 23.04-25.6 25.6-40.96 0-5.12 2.56-10.24 2.56-15.36 0-7.68-2.56-12.8-5.12-17.92-7.68-12.8-28.16-12.8-51.2-12.8z m15.36 48.64c-2.56 10.24-7.68 17.92-17.92 23.04-7.68 2.56-15.36 5.12-25.6 5.12h-5.12v-2.56l10.24-46.08v-5.12h5.12l23.04 2.56c10.24 2.56 12.8 12.8 10.24 23.04z m-320 25.6c7.68-5.12 10.24-15.36 2.56-17.92-10.24-2.56-20.48-2.56-28.16 5.12-7.68 5.12-10.24 15.36-2.56 17.92 10.24 5.12 20.48 2.56 28.16-5.12z m550.4-10.24c-17.92 2.56-20.48 2.56-35.84 5.12-10.24 25.6-10.24 20.48-20.48 38.4l-2.56-43.52-2.56-2.56c-17.92 2.56-17.92 2.56-33.28 5.12v2.56c2.56 7.68 2.56 15.36 2.56 23.04 0 7.68 2.56 15.36 2.56 23.04 2.56 12.8 2.56 20.48 5.12 38.4-10.24 17.92-12.8 23.04-23.04 38.4l-7.68 10.24-2.56 2.56h-10.24l-5.12 20.48h20.48c10.24 2.56 20.48-2.56 25.6-12.8l12.8-23.04 2.56-2.56c10.24-10.24 74.24-122.88 71.68-122.88z" fill="#FFFFFF" p-id="7439"></path><path d="M2490.88 414.72c10.24 20.48 10.24 20.48 23.04 20.48h35.84c-7.68-10.24-25.6-58.88-30.72-66.56-5.12-5.12-10.24-7.68-15.36-7.68h-33.28s12.8 33.28 20.48 53.76z" fill="#17305E" p-id="7440"></path><path d="M2662.4 230.4h-40.96l-12.8 51.2h-168.96l-5.12 23.04h168.96v2.56l-48.64 207.36c0 7.68-2.56 15.36-7.68 20.48-5.12 7.68-15.36 10.24-25.6 10.24h-61.44v12.8c5.12 7.68 12.8 12.8 23.04 10.24h71.68c15.36 0 28.16-10.24 30.72-23.04l56.32-240.64h38.4c2.56-5.12 2.56-10.24 0-15.36-5.12-5.12-12.8-7.68-20.48-7.68h-12.8l15.36-51.2z" fill="#17305E" p-id="7441"></path><path d="M2329.6 568.32h40.96l51.2-227.84c10.24-17.92 23.04-40.96 38.4-69.12 5.12-10.24 17.92-30.72 20.48-33.28l5.12-7.68h-40.96l-2.56 5.12c-17.92 33.28-40.96 74.24-53.76 94.72-20.48 33.28-40.96 53.76-53.76 58.88l-5.12 25.6h5.12c12.8 0 23.04-2.56 33.28-7.68L2329.6 568.32zM1914.88 304.64c0-5.12 0-7.68-2.56-12.8s-10.24-10.24-17.92-10.24h-153.6c-10.24 0-17.92 5.12-25.6 10.24l-2.56 2.56c-15.36 17.92-51.2 56.32-61.44 66.56h-35.84l15.36-17.92c20.48-25.6 104.96-117.76 104.96-117.76h-30.72c-2.56 0-7.68 0-10.24 2.56-5.12 2.56-10.24 7.68-12.8 10.24-2.56 5.12-64 74.24-89.6 104.96-5.12 5.12-7.68 10.24-7.68 15.36-2.56 5.12 0 12.8 2.56 17.92 5.12 5.12 10.24 7.68 15.36 5.12h33.28c-35.84 38.4-53.76 58.88-71.68 76.8-5.12 5.12-7.68 12.8-7.68 20.48 0 7.68 2.56-10.24 0-2.56-5.12 15.36 20.48 17.92 20.48 17.92h79.36c7.68 0 12.8-2.56 17.92-7.68 2.56-5.12 5.12-10.24 5.12-15.36h-84.48s115.2-130.56 133.12-148.48c7.68-10.24 20.48-17.92 33.28-20.48l153.6 2.56z" fill="#17305E" p-id="7442"></path><path d="M1894.4 386.56c2.56-5.12 0-10.24 0-15.36-2.56-5.12-7.68-7.68-15.36-7.68h-148.48c-7.68 0-12.8 5.12-17.92 10.24-2.56 2.56-5.12 7.68-5.12 12.8H1894.4z" fill="#17305E" p-id="7443"></path><path d="M1866.24 560.64c5.12-5.12 7.68-10.24 10.24-15.36H1817.6c-5.12 0-10.24 0-12.8-5.12-2.56-2.56-5.12-7.68-5.12-12.8l25.6-296.96h-40.96l-25.6 302.08c-2.56 17.92 5.12 38.4 48.64 38.4h38.4c5.12-2.56 12.8-5.12 20.48-10.24z m384 0c5.12-5.12 7.68-10.24 10.24-15.36-10.24-2.56-23.04-2.56-33.28-5.12-33.28-15.36-64-35.84-89.6-58.88 33.28-20.48 66.56-38.4 97.28-58.88 12.8-10.24 20.48-23.04 20.48-38.4 0-10.24-10.24-20.48-23.04-20.48H2150.4l15.36-56.32h135.68c2.56-5.12 2.56-12.8-2.56-17.92-5.12-5.12-10.24-7.68-15.36-7.68h-112.64l12.8-51.2h-43.52l-15.36 51.2h-115.2c-7.68 0-12.8 2.56-17.92 5.12-5.12 5.12-7.68 10.24-10.24 17.92h138.24l-12.8 56.32h-87.04c-7.68 0-15.36 2.56-20.48 7.68l-7.68 15.36H2201.6c5.12 0 12.8 10.24-5.12 20.48-33.28 20.48-71.68 40.96-87.04 51.2-2.56-2.56-28.16-23.04-46.08-38.4-7.68-2.56-15.36-7.68-23.04-7.68H1996.8l74.24 69.12c-20.48 12.8-40.96 25.6-66.56 38.4-15.36 10.24-33.28 17.92-51.2 20.48l-38.4 5.12c0 5.12 0 10.24 2.56 15.36 2.56 5.12 7.68 7.68 12.8 7.68h33.28c23.04-7.68 46.08-17.92 69.12-30.72 28.16-12.8 48.64-25.6 66.56-35.84 2.56 2.56 81.92 56.32 99.84 64h35.84c2.56 2.56 10.24 0 15.36-2.56z m-770.56-15.36h-94.72l25.6-110.08h76.8c2.56-5.12 2.56-12.8 0-17.92-5.12-5.12-12.8-7.68-20.48-5.12h-51.2L1433.6 332.8h-43.52l-17.92 79.36h-48.64c-7.68 0-15.36 0-23.04 5.12-5.12 5.12-7.68 10.24-7.68 17.92h74.24l-25.6 110.08h-69.12c-7.68 0-15.36-5.12-20.48-12.8-2.56-5.12-2.56-12.8 0-17.92l30.72-133.12 66.56-79.36h184.32c2.56-5.12 0-10.24-2.56-15.36-5.12-5.12-10.24-7.68-17.92-7.68h-143.36l7.68-7.68L1415.68 230.4h-48.64c-5.12 5.12-38.4 46.08-43.52 51.2h-71.68c-5.12 0-12.8 2.56-17.92 5.12-7.68 5.12-10.24 12.8-12.8 20.48h81.92c-76.8 94.72-79.36 102.4-112.64 120.32 0 0-5.12 20.48-5.12 23.04 17.92-5.12 33.28-15.36 46.08-25.6L1203.2 547.84c0 5.12 0 12.8 5.12 17.92 5.12 5.12 12.8 7.68 17.92 7.68h217.6c10.24 0 20.48-2.56 25.6-10.24 7.68-7.68 10.24-12.8 10.24-17.92z m189.44-7.68c-5.12 7.68-12.8 10.24-20.48 12.8l-115.2 20.48c2.56-10.24 5.12-17.92 12.8-25.6 5.12-5.12 12.8-10.24 20.48-10.24l110.08-10.24c-2.56 2.56-5.12 7.68-7.68 12.8z" fill="#17305E" p-id="7444"></path><path d="M1843.2 412.16c-10.24 17.92-20.48 33.28-35.84 48.64-7.68 7.68-17.92 12.8-28.16 12.8h-61.44c-7.68 0-15.36 2.56-23.04 5.12-5.12 5.12-10.24 10.24-10.24 17.92h51.2c58.88 0 74.24 0 102.4-23.04 17.92-17.92 35.84-38.4 48.64-61.44H1843.2M1159.68 732.16c2.56-12.8 7.68-23.04 12.8-33.28 5.12-7.68 10.24-12.8 15.36-17.92 5.12-5.12 12.8-10.24 20.48-12.8 10.24-2.56 20.48-5.12 28.16-5.12 15.36-2.56 30.72 5.12 40.96 17.92 10.24 15.36 10.24 33.28 5.12 48.64-2.56 20.48-12.8 35.84-28.16 48.64-12.8 12.8-30.72 17.92-51.2 17.92-15.36 2.56-30.72-5.12-40.96-17.92-7.68-12.8-10.24-30.72-2.56-46.08z m25.6 0c-2.56 10.24-2.56 23.04 2.56 33.28 5.12 7.68 15.36 12.8 23.04 10.24 10.24 0 20.48-5.12 28.16-10.24 10.24-10.24 15.36-20.48 17.92-35.84 2.56-10.24 2.56-23.04-2.56-33.28-5.12-7.68-15.36-12.8-23.04-10.24-10.24 0-20.48 5.12-28.16 10.24-7.68 10.24-15.36 20.48-17.92 35.84z m192 64h-25.6l10.24-48.64c2.56-5.12 2.56-12.8 2.56-20.48 0-2.56-2.56-5.12-2.56-7.68-2.56-2.56-5.12-2.56-7.68-2.56-5.12 0-7.68 0-12.8 2.56s-7.68 5.12-10.24 10.24l-7.68 23.04-10.24 43.52h-25.6l23.04-94.72h23.04l-2.56 12.8c7.68-10.24 20.48-15.36 35.84-15.36 5.12 0 10.24 0 15.36 2.56 2.56 2.56 7.68 5.12 7.68 7.68 2.56 2.56 2.56 7.68 2.56 10.24 0 5.12 0 10.24-2.56 17.92l-12.8 58.88m25.6 0L1433.6 665.6h25.6l-30.72 130.56h-25.6m51.2 0l23.04-94.72h25.6l-23.04 94.72h-25.6m23.04-107.52l5.12-23.04h25.6l-5.12 23.04h-25.6m112.64 107.52h-25.6l10.24-48.64c2.56-5.12 2.56-12.8 2.56-20.48 0-2.56-2.56-5.12-2.56-7.68-2.56-2.56-5.12-2.56-7.68-2.56-5.12 0-7.68 0-12.8 2.56s-7.68 5.12-10.24 10.24l-7.68 23.04-10.24 43.52h-25.6l23.04-94.72h23.04l-2.56 12.8c7.68-10.24 20.48-15.36 35.84-15.36 5.12 0 10.24 0 15.36 2.56 2.56 2.56 7.68 5.12 7.68 7.68 2.56 2.56 2.56 7.68 2.56 10.24 0 5.12 0 10.24-2.56 17.92l-12.8 58.88m87.04-30.72l23.04 5.12c-5.12 7.68-10.24 15.36-20.48 20.48-7.68 5.12-17.92 7.68-28.16 7.68-12.8 2.56-25.6-5.12-33.28-15.36-5.12-10.24-5.12-23.04-2.56-33.28 2.56-15.36 10.24-28.16 20.48-35.84 10.24-7.68 20.48-12.8 33.28-12.8s23.04 5.12 30.72 12.8c5.12 12.8 7.68 28.16 2.56 43.52H1638.4c-2.56 5.12 0 12.8 2.56 17.92 2.56 5.12 7.68 5.12 12.8 5.12 2.56 0 7.68 0 10.24-2.56 7.68-5.12 10.24-7.68 12.8-12.8z m7.68-25.6c2.56-5.12 0-10.24-2.56-15.36-2.56-2.56-7.68-5.12-12.8-5.12s-10.24 2.56-15.36 5.12c-5.12 5.12-7.68 10.24-10.24 15.36h40.96m133.12 56.32l30.72-130.56h40.96c10.24 0 20.48 0 30.72 2.56 7.68 2.56 12.8 7.68 15.36 12.8 2.56 7.68 5.12 17.92 2.56 25.6-2.56 7.68-5.12 12.8-10.24 20.48-7.68 10.24-17.92 17.92-28.16 20.48-10.24 2.56-17.92 2.56-28.16 2.56h-17.92l-10.24 46.08h-25.6m51.2-110.08l-7.68 35.84h15.36c7.68 0 15.36 0 20.48-2.56 2.56-2.56 7.68-2.56 10.24-7.68 2.56-2.56 5.12-7.68 5.12-10.24 0-5.12 0-7.68-2.56-12.8-2.56-2.56-5.12-5.12-10.24-5.12h-20.48l-10.24 2.56m104.96 43.52l-23.04-5.12c5.12-7.68 10.24-15.36 17.92-20.48 10.24-5.12 20.48-7.68 30.72-7.68 7.68 0 15.36 0 23.04 5.12 5.12 2.56 7.68 5.12 10.24 10.24 0 7.68 0 15.36-2.56 23.04l-7.68 28.16c-2.56 5.12-2.56 12.8-2.56 17.92 0 5.12 0 7.68 2.56 12.8h-25.6v-7.68-2.56c-5.12 5.12-10.24 7.68-15.36 10.24-5.12 2.56-10.24 2.56-15.36 2.56-7.68 0-15.36-2.56-20.48-7.68-5.12-5.12-5.12-12.8-2.56-20.48 0-5.12 2.56-10.24 7.68-15.36 2.56-5.12 7.68-7.68 12.8-10.24 7.68-2.56 12.8-5.12 20.48-5.12 7.68-2.56 17.92-2.56 25.6-5.12v-2.56c2.56-2.56 0-7.68 0-10.24-2.56-2.56-7.68-2.56-12.8-2.56-2.56 0-7.68 0-10.24 2.56-7.68 5.12-10.24 7.68-12.8 10.24z m28.16 20.48c-5.12 2.56-10.24 2.56-15.36 2.56-5.12 0-10.24 2.56-15.36 5.12l-7.68 7.68c0 2.56 0 7.68 2.56 10.24 2.56 2.56 5.12 5.12 10.24 2.56 5.12 0 10.24-2.56 12.8-5.12l7.68-7.68c2.56-5.12 2.56-7.68 2.56-12.8l2.56-2.56m48.64-48.64h25.6l7.68 66.56 38.4-66.56h25.6L2094.08 793.6l-10.24 15.36c-2.56 5.12-5.12 7.68-10.24 12.8l-7.68 7.68c-2.56 2.56-7.68 2.56-10.24 5.12-5.12 0-7.68 2.56-12.8 2.56s-10.24 0-12.8-2.56l2.56-20.48h10.24c5.12 0 10.24-2.56 15.36-5.12 2.56-2.56 7.68-7.68 10.24-12.8l-17.92-94.72m112.64 0h23.04l-2.56 12.8c7.68-10.24 20.48-15.36 33.28-15.36 5.12 0 10.24 0 15.36 2.56 5.12 2.56 7.68 7.68 7.68 10.24 5.12-5.12 10.24-7.68 15.36-10.24 5.12-2.56 10.24-2.56 15.36-2.56 5.12 0 12.8 0 17.92 5.12 5.12 2.56 7.68 7.68 7.68 12.8 0 7.68 0 12.8-2.56 20.48l-12.8 61.44h-25.6l12.8-53.76c2.56-5.12 2.56-12.8 2.56-17.92-2.56-2.56-5.12-5.12-10.24-5.12-2.56 0-7.68 0-10.24 2.56-2.56 2.56-7.68 5.12-7.68 10.24-2.56 5.12-5.12 12.8-7.68 20.48l-10.24 46.08h-25.6l12.8-51.2c2.56-5.12 2.56-12.8 2.56-17.92 0-2.56 0-5.12-2.56-5.12-2.56-2.56-5.12-2.56-7.68-2.56-5.12 0-7.68 0-10.24 2.56-2.56 2.56-7.68 5.12-7.68 10.24-2.56 5.12-5.12 12.8-7.68 20.48l-10.24 46.08h-25.6l20.48-102.4m204.8 64l23.04 5.12c-5.12 7.68-10.24 15.36-20.48 20.48-7.68 5.12-17.92 7.68-28.16 7.68-12.8 2.56-25.6-5.12-33.28-15.36-5.12-10.24-5.12-23.04-2.56-33.28 2.56-15.36 10.24-28.16 20.48-35.84 10.24-7.68 20.48-12.8 33.28-12.8s23.04 5.12 30.72 12.8c5.12 12.8 7.68 28.16 2.56 43.52H2329.6c-2.56 5.12 0 12.8 2.56 17.92 2.56 5.12 7.68 5.12 12.8 5.12 2.56 0 7.68 0 10.24-2.56 7.68-5.12 10.24-7.68 12.8-12.8z m7.68-25.6c2.56-5.12 0-10.24-2.56-15.36-2.56-2.56-7.68-5.12-12.8-5.12s-10.24 2.56-15.36 5.12c-5.12 5.12-7.68 10.24-10.24 15.36h40.96m117.76 56.32h-25.6l10.24-48.64c2.56-5.12 2.56-12.8 2.56-20.48 0-2.56-2.56-5.12-2.56-7.68-2.56-2.56-5.12-2.56-7.68-2.56-5.12 0-7.68 0-12.8 2.56s-7.68 5.12-10.24 10.24l-7.68 23.04-7.68 43.52h-25.6l23.04-94.72h23.04l-2.56 12.8c7.68-10.24 20.48-15.36 35.84-15.36 5.12 0 10.24 0 15.36 2.56 2.56 2.56 7.68 5.12 7.68 7.68v10.24c0 5.12 0 10.24-2.56 17.92l-12.8 58.88m92.16-94.72l-5.12 20.48h-17.92l-7.68 38.4c0 5.12-2.56 10.24-2.56 12.8 0 0 0 2.56 2.56 2.56h5.12c2.56 0 7.68 0 10.24-2.56l-2.56 20.48c-7.68 2.56-12.8 2.56-20.48 2.56-5.12 0-7.68 0-12.8-2.56-2.56 0-5.12-2.56-7.68-5.12 0-2.56-2.56-7.68 0-10.24 0-5.12 2.56-12.8 2.56-17.92l10.24-40.96h-10.24l5.12-20.48h12.8l5.12-33.28h25.6l-7.68 33.28 15.36 2.56" fill="#17305E" p-id="7445"></path></svg>