<?xml version="1.0" standalone="no"?><!DOCTYPE svg PUBLIC "-//W3C//DTD SVG 1.1//EN" "http://www.w3.org/Graphics/SVG/1.1/DTD/svg11.dtd"><svg t="1506086459211" class="icon" style="" viewBox="0 0 1024 1024" version="1.1" xmlns="http://www.w3.org/2000/svg" p-id="3207" xmlns:xlink="http://www.w3.org/1999/xlink" width="70" height="70"><defs><style type="text/css"></style></defs><path d="M832 96v832l32-32H160l32 32V96l-32 32h704l-32-32z m64 0c0-17.673-14.327-32-32-32H160c-17.673 0-32 14.327-32 32v832c0 17.673 14.327 32 32 32h704c17.673 0 32-14.327 32-32V96z" p-id="3208" fill="#2693d4"></path><path d="M512 256c35.493 0 64 28.43 64 64 0 35.493-28.43 64-64 64-35.493 0-64-28.43-64-64 0-35.493 28.43-64 64-64z m0-64c-70.954 0-128 57.199-128 128 0 70.954 57.199 128 128 128 70.954 0 128-57.199 128-128 0-70.954-57.199-128-128-128zM480 576h288v-64H448v64h32z m0 128h288v-64H448v64h32z m0 128h288v-64H448v64h32zM256 512h128v64H256v-64z m0 128h128v64H256v-64z m0 128h128v64H256v-64z" p-id="3209" fill="#2693d4"></path></svg>