<?xml version="1.0" standalone="no"?><!DOCTYPE svg PUBLIC "-//W3C//DTD SVG 1.1//EN" "http://www.w3.org/Graphics/SVG/1.1/DTD/svg11.dtd"><svg t="1505648425118" class="icon" style="" viewBox="0 0 1024 1024" version="1.1" xmlns="http://www.w3.org/2000/svg" p-id="4432" xmlns:xlink="http://www.w3.org/1999/xlink" width="130" height="130"><defs><style type="text/css"></style></defs><path d="M158.7 576l28.5-72 29.7 72h-58.2zM99 576l28.5-72 29.7 72H99z m148.2-16.4h22.3l-1.2 4.1h-19.1l-2-4.1z m-4.3-10.2h28.5l-0.7 4.4h-25.9l-1.9-4.4z m-4.4-10.1h34.1l-0.5 4.4h-31.7l-1.9-4.4z m-4.1-10.2h38.2v4.3h-36.5l-1.7-4.3z m-4.3-10.1h41.6l0.5 4.4h-40.4l-1.7-4.4z m-4.4-10.2h44l1 4.3h-43l-2-4.3z m-58.2-80.5h4.3l4.6 0.5 4.3 0.2 4.1 0.7 4.4 0.7 4.1 1 4.1 1.2 4.1 1.2 1.9 0.7 1.9 0.7 3.9 1.7 3.9 1.7 3.6 1.9 3.6 1.9 3.6 2.2 3.4 2.4 3.4 2.4 3.1 2.4 3.1 2.7 3.1 2.9 2.9 2.9 2.9 2.9 2.7 3.1 1.2 1.7 1.2 1.7 2.7 3.4 2.2 3.4 2.2 3.4 2.2 3.6 1.7 3.9 1.9 3.6 1.4 3.9 1.4 4.1 1.5 3.9h-45l-27.8-65-29 73.3-30.3-72.5-53.6 138.6 24.4 30.5H231l22.7-33.1-2.2-5.1h14.7l-1.5 3.9-1.7 3.6-1.7 3.6-1.7 3.4-2.2 3.6-1.9 3.4-2.4 3.2-2.2 3.1-2.4 3.2-2.7 3.1-2.7 2.7-2.9 2.9-2.9 2.7-2.9 2.7-3.1 2.4-3.1 2.4-3.1 2.2-3.4 2.2-3.4 1.9-3.6 1.9-3.6 1.7-3.6 1.5-3.9 1.4-3.6 1.4-3.9 1.2-4.1 1-3.9 1-4.1 0.7-1.9 0.2-2.2 0.2-4.1 0.5-4.1 0.2h-9.6l-5.3-0.5-5.3-0.7-5.3-1-5.1-1.2-4.8-1.2-4.8-1.7-4.8-1.9-4.6-2.2-4.6-2.2-2.2-1.4-2.2-1.2-4.4-2.7-4.1-2.9-4.1-3.1-1.9-1.7-1.7-1.7-1.9-1.7-1.7-1.7-3.6-3.6-3.4-3.9-1.4-1.9-1.5-2.2-3.1-4.1-1.2-1.9-1.5-2.2-1.2-2.2-1.2-2.4-2.4-4.3-2.2-4.8-1.7-4.6-1.7-5.1-1.4-4.8-0.7-2.7-0.5-2.4-0.5-2.7-0.5-2.7-0.7-5.1-0.2-5.6-0.2-2.7v-2.7l0.2-5.3 0.2-5.3 0.7-5.3 1-5.3 1.2-5.1 1.4-4.8 1.7-4.8 1.7-4.8 2.2-4.6 2.4-4.6 1.2-2.2 1.2-2.2 2.7-4.4 3.1-4.1 2.9-4.1 1.7-1.9 1.7-1.7 1.7-1.9 1.9-1.7 3.6-3.6 3.6-3.4 2.2-1.5 1.9-1.4 4.1-3.1 2.2-1.2 2.2-1.5 2.2-1.2 2.2-1.2 4.6-2.4 4.6-2.2 4.8-1.9 4.8-1.4 4.8-1.5 2.7-0.7 2.4-0.5 2.7-0.5 2.7-0.5 5.3-0.7 5.3-0.3 2.7-0.2h2.6v-0.1z" fill="#BC1D21" p-id="4433"></path><path d="M392.5 541.2v3.8l0.2 3.3 0.5 3.5 0.2 0.9 0.2 0.9 0.5 0.5 0.5 0.2 0.5 0.2h1l0.9-0.2 1.2-0.2 2.6-0.2h5.4l4.4 0.5 1.9 0.2 1.2 0.2 0.9-0.2h0.7l0.5-0.2 0.9-0.7 0.2-0.2 0.2-0.5 0.2-0.7v-0.7l-0.2-0.7-0.2-1.2v-4.9l0.5-4v-0.8l-0.2-0.5-0.2-0.9-0.7-0.7-0.5-0.2-0.5-0.2H406l-10.1 0.2h-0.9l-0.9 0.5-0.5 0.7-0.5 0.7-0.5 1.2-0.1 0.4z m0.4-35.6l-0.5 0.5-0.5 0.5-0.9 1.4-1.6 3.3-1.4 3.3-0.5 1.4v0.7l0.2 0.5v0.5l0.2 0.5 0.7 0.5 0.2 0.2 0.2 0.2h0.7l0.5 0.2h0.7l12.9-0.5h1.4l0.7-0.2 0.5-0.2 0.7-0.5 0.5-0.7 0.5-0.5v-0.7l0.2-0.5-0.2-0.5-0.5-0.5-0.5-0.7-0.7-0.7-0.9-0.7-0.9-0.5-1.2-0.5-1.4-0.2-0.7-0.2-0.7-0.2-0.5-0.2-0.5-0.5-0.9-0.9-0.7-0.9-0.5-0.9-0.5-0.7-0.2-0.7-0.7-1.2-0.2-0.2-0.5-0.2h-0.7l-0.5 0.2-0.7 0.2-0.5 0.5-0.1 0.3z m11-24.1v5.9l-0.2 1.2-0.2 0.7-0.2 0.7-0.7 1.4-0.7 1.2-1.4 1.9-0.7 0.7-0.9 0.7-0.5 0.9-0.2 0.7v1.6l0.2 0.5 0.2 0.5 0.5 0.7 0.2 0.4 0.5 0.2 0.9 0.7 0.7 0.2 1.4 0.5h0.7l0.9-0.2 0.9-0.2 0.9-0.5 0.7-0.5 1.6-1.4 1.2-1.4 0.9-1.4 0.9-1.2 0.5-1.2v-1.2l0.5-1.4 0.5-1.4 0.5-1.4 1.2-2.1 0.5-0.9 1.2-1.4 0.7-1.2 1.2-2.6 0.7-1.6 0.2-0.7-0.2-0.7-0.2-0.7-0.5-0.7-0.5-0.5-0.5-0.5-0.5-0.2h-0.9l-0.2 0.2-0.5 0.2-0.2 0.5-0.5 0.2h-0.5l-0.7 0.2-1.2 0.2h-1.2l-2.3-0.5h-0.9l-0.7-0.2h-0.5l-0.7 0.2-0.2 0.2-0.7 0.7-0.5 0.9-0.2 0.9-0.2 0.9v1.3h-0.1z m-40 16.1l0.9 0.5 0.9 0.9 2.3 2.1 1.9 1.9 0.9 0.7 0.2 0.7 0.5 0.5 0.2 0.2 0.5 0.3 0.7 0.2h0.9l1.4-0.2 0.5-0.3 0.2-0.9 0.9-1.4 0.9-1.9v-1.6l0.2-0.7 0.2-0.9 0.2-0.7 0.9-1.2 0.5-0.9 0.9-1.4 2.3-4 3-5.1 0.5-1.9v-1.6l-0.2-1.2-0.2-0.7-0.5-0.5-0.2-0.5-0.2-0.5-0.7-0.7-0.5-0.5-0.7 0.5-0.7 0.2h-1.2l-0.9-0.5h-0.2l-0.7-0.5-0.7-0.2-0.9-0.2-0.7 0.2-0.5 0.5-0.5 0.5v0.5l-0.2 0.5-0.2 0.5-0.2 0.5-0.5 1.4-0.5 1.4-0.3 1.6-0.4 2.8-0.2 1.4-0.2 1.6-0.7 1.6-0.2 0.5-0.5 0.5-0.7 0.7-0.9 0.5-0.7 0.5h-1.2l-0.5-0.2H367l-0.9 0.2h-0.5l-0.7 0.5-0.5 0.5-0.5 0.2-0.5 0.5-0.2 0.7v0.7l0.2 0.5 0.2 0.5 0.3 0.2z m-38.4-23.4h2.1l5.1 0.2h3.3l3-0.2 3.3-0.2 2.6-0.2 0.9-0.5 0.9-0.7 0.9-0.7 0.7-1.2 0.2-0.7 0.3-0.7 0.2-0.7v-0.9l-0.2-0.9-0.3-0.9-0.5-2.9-1.6-6.3-1.4-7-0.5-2.8V445l-0.2-0.9v-0.9l0.2-0.9 0.5-0.9 0.2-0.5 0.5-0.2 0.7-0.2h0.7l0.7 0.2 1.2 0.2 1.2 0.7 1.4 0.7 1.9 0.9 2.3 0.7 2.6 0.5 1.4 0.2H364v26.2l0.5 0.7 0.2 0.7 0.7 0.9 1.2 0.5 0.5 0.2 0.9 0.2h1.9l1.2-0.2 1.2-0.5 0.7-0.2 1.4-0.9 0.7-0.7 0.7-0.7 0.2-0.7 0.2-0.5v-0.2l-0.2-1.6-0.9-3.3-0.5-2.1-0.7-1.9-0.9-1.5-0.7-0.9-0.2-1.2-0.2-2.4v-1.2l0.5-0.7 0.2-0.5h1.1l14.3 1.6 10.3 1.2 3.8 0.7 1.9 0.5h5.8l3.1-0.5 1.6-0.2 1.6-0.2 1.6-0.5 1.9-0.5 1.9-0.7 2.1-0.7 2.3-0.2 5.4-0.2H439.7l0.9 0.2h0.7l0.7 0.2 0.5 0.2 0.7 0.7 0.2 0.5 0.2 0.5 0.2 0.5v1.4l-0.2 0.9-0.2 0.9-0.5 1.2-0.2 0.7-0.5 1.4-0.2 0.9v0.9l-0.2 0.9 0.2 0.9-0.2 0.9-0.7 2.3-1.4 4.2-0.9 2.4-1.2 2.8-1.2 4.2-0.5 3.3-0.2 1.4-0.2 1.2-1.2 4.4-1.4 3.8-0.7 1.6-0.5 1.2-0.7 3-0.9 0.9-2.6 2.3-1.2 1.4-1.2 1.4-0.9 1.4-0.5 0.9h-0.9l-1.7 0.2-0.9 0.2-0.9 0.5-0.2 0.2-0.2 0.5v1l-0.2 0.7v0.7l0.2 0.7 0.5 0.9 0.9 0.7 1.4 0.7 0.9 0.2 1.2 0.2h0.9l2.6-0.2h1.4l1.6-0.5 0.7-0.2 0.7-0.2 0.7-0.2 0.5-0.5 0.9-0.2h2.3l0.5 0.2 0.2 0.5 0.5 0.2v0.7l0.2 0.7-0.2 0.7-0.2 1.2-0.2 0.5-0.5 1.6-0.5 1.2-0.2 1.2-0.2 1.4v1.6l-0.2 3.7v13.8l0.2 4.7 0.2 3.7 0.2 1.4 0.2 1.2v0.9l0.5 2.1 0.5 2.6 0.5 1.2 0.2 0.9 0.2 0.7v3l-0.2 0.9-0.5 0.9 0.2 0.9v1.9l-0.2 1.2-0.2 0.5-0.2 0.2-0.5 0.7h-0.9l-1.9 1.2-1.9-0.7-1.4-0.7-0.7-0.5-0.2-0.5-10.1-0.2-0.9 0.2-1.2 0.5-1.6 0.2-1.7 0.2h-3.3l-0.9-0.2-1.2-0.2-1.4-0.5-22.2 0.2-2.3 0.5-1.6 0.5-0.7 0.5-0.5 0.2-0.2 0.2-0.2-0.2h-0.5l-0.3-0.2-0.4-0.3-0.5-0.2-0.2-0.7-0.5-1.2-0.2-0.7-0.5-0.2-0.7-0.2-0.2-5.6-0.5-12.9-0.3-7v-12.2l0.3-2.1V529l-0.5-1.1-0.5-0.7-0.5-0.7-1.2-1.6-0.7-0.9-1.2-0.7-1.2-0.9-1.2-0.7-0.7-0.2-0.2-0.5h-0.7l-0.7 0.2-0.9 0.5-0.2 0.5-0.5 0.5-0.2 0.7-0.5 0.7-0.2 2.6-0.2 6.3v6.8l0.2 1.6 0.2 1.4v1.1l0.5 0.7 0.7 2.8 0.5 2.6 0.2 1.4V557.7l-0.2 3.5v1.4l-0.2 0.9v0.9l0.2 1.2 0.2 0.5 0.2 0.5-0.2 2.8-0.5 2.1-0.2 0.7-0.2 0.2-0.2 0.2v0.2l-0.2 0.5-0.5 0.2-0.5 0.2-0.5 0.2h-0.5l-0.7-0.2-1.4-0.2h-3.3l-3.7 0.2-1.6 0.2h-0.7l-0.7 0.2-1.2 0.2H346l-1.6-0.2-0.7-0.2h-0.7l-0.7-0.5-0.7-0.2-0.6-0.2-0.5-0.5-4.9-4.2 0.2-0.9 0.2-0.5 0.2-0.5 0.2-0.5 0.5-0.5 1.4-1.2 1.6-1.9 2.1-2.4 0.5-0.2 0.9-0.2 1.4-0.2 0.7-0.2 0.7 0.2h0.2l0.5-0.2 0.2-0.2 0.2-0.5 0.2-0.7 0.2-1.2-0.2-7-0.5-5.6v-2.6l-0.2-1.6-0.2-1.2-0.2-0.9-0.2-1.2-0.2-0.7-0.2-0.5-0.5-0.5-0.2-0.5-0.5-0.2-0.7-0.2h-0.5l-0.9 0.2-2.1 2.3-0.5 0.5-0.7 0.7-0.7 0.7-0.9 0.7-0.7 0.5-0.9 0.2-0.2-0.2h-0.4l-1 0.7-2.6 1.9-1.2 1.2-1.2 1.2-0.7 0.5-0.2 0.7-0.5 0.5v0.5l-0.2-0.9-0.7-2.8-0.7-1.6-0.7-1.6-0.7-1.6-0.9-1.4-0.7-1.2-1.9-3.3-0.9-1.9-0.7-2.1-0.7-2.1-0.2-1.1-0.2-0.9-0.2-0.7v-0.9l-0.2-1.2-0.2-0.9 0.2-0.9 0.2-0.5v-0.2l0.5-0.5h3l2.1-0.5 0.9-0.2 0.7-0.7 0.7-0.3 1.9-0.2 3.8-0.5h2.3l2.8 0.2 1.4-0.5 1.4-0.7 1.9-0.9 2.1-1.4 1.9-1.6 0.9-0.9 0.7-1.2 0.7-1.2 0.5-1.2 0.3-1.6-0.3-1.6v-0.9l-0.2-1.2-0.2-0.9-0.2-0.9-0.5-0.9-0.5-0.7-0.7-0.7-0.7-0.7-0.9-0.2-1.2-0.2-0.5-0.2h-1.4l-0.9 0.2-0.7 0.5-0.2 0.2-0.2 0.2-0.5 0.7h-4.9l-0.7-0.2-0.9-0.2-0.9-0.5-0.9-0.7-0.2-0.5-0.2-0.5-0.2-0.5-0.2-0.7V490.6l-0.2-1.2-0.2-1.2-0.5-0.9-0.5-1.2-1.4-2.8-0.7-1.9-0.7-1.9-0.5-1.6-0.5-1.9v-2l0.2-0.2 0.5 0.2-0.2 0.2z m216.4 69l-0.2 5.1v1.2l0.2 0.9 0.5 0.5 0.2 0.5 0.5 0.2h0.7l0.7-0.2h0.7l0.5 0.2 0.5 0.2 0.7 0.4 0.2 0.3 0.5 0.5 0.7 0.2 0.7 0.2h0.7l1.2-0.2h0.2l0.2-0.2 0.2-0.5 0.2-0.5 0.9-0.9 1.4-1.2 0.5-0.2 0.2-0.2 0.5-0.9V547.7l-0.2-6.5v-0.5l-0.2-0.5-0.2-0.5-0.5-0.2-0.2-0.2h-0.5l-0.9-0.2H549.9l-0.2 0.2-0.2 0.2-0.7 0.2-0.8 0.3h-2.5l-1.2-0.2H543.4l-0.7 0.2-0.2 0.2-0.2 0.5-0.2 0.5v2h-0.2z m22.7-11.6v0.7l-0.2 2.3-0.2 2.6 0.2 1.4 0.2 1.2 0.2 1.2v5.8l-0.2 0.9v12.2l0.2 0.5 0.2 0.5 0.2 0.2 0.2 0.2 0.5 0.2 0.5 0.2h1l1.4-0.4 0.7-0.2 0.5-0.5 0.2-0.2 0.5-0.5 0.2-0.7 0.2-0.7v-1.2l-0.2-0.7-0.2-0.7-0.2-1.4v-3.1l0.2-2.1 0.2-0.9 0.2-0.7v-1.2l0.2-3V534.1l0.2-2.6-0.2-0.7-0.2-0.7-0.4-0.9-0.5-0.5-0.2-0.2-0.5-0.2-0.5-0.2h-0.5l-0.5 0.2-0.5-0.2h-0.5l-0.7 0.5-0.2 0.2-0.5 0.2-0.2 0.5-0.4 0.7v0.7l-0.4 0.7z m-40-18.8h-0.7l-0.7 0.5-0.2 0.2-0.5 0.5v1.7l0.2 1.4v1l-0.2 0.2-0.5 0.2-0.5 0.2-0.5 0.5-0.2 0.5-0.2 0.7-0.2 0.9v0.9l0.2 0.9 0.2 0.7 0.2 0.5 0.2 0.2 0.7 0.5h0.9l0.9 0.2 0.7-0.2h0.7l0.7-0.2 5.6-3.3 0.9-4.9v-1.2l-0.5-1.2-0.5-1.2-0.9-0.9-0.9-0.9-0.5-0.2-0.2-0.2h-0.9l-0.2 0.2-0.2 0.5-0.5 0.7-0.5 0.5-0.5 0.2-0.7 0.2-0.7-0.2v-0.1z m19.7 4l0.2 1.9 0.5 1.4 0.5 1.6 0.2 0.7 0.2 0.7-0.2 0.5v0.7l-0.7 0.9-0.9 1.2-0.2 0.7-0.2 0.7 0.2 0.2v0.2l0.2 0.2 0.5 0.5h1.7l1.2-0.2h3.2l0.7 0.2h0.5l0.5 0.2h0.2l0.9-0.2 1.2-0.2 0.5-0.2 0.2-0.5 0.2-0.7v-0.5l-0.2-0.7-0.2-0.7-0.5-0.7-0.5-0.7-0.5-0.9-0.2-1.2-0.2-3.3v-4.4l-0.2-0.7-0.2-0.7-0.5-0.5-0.7-0.5-0.5-0.2-0.7-0.2-1.2-0.2h-1.4l-0.9 0.2-1.2 0.2h-0.5l-0.5 0.2-0.2 0.2-0.2 0.5-0.2 0.2-0.2 0.5v1.8l0.2 0.9 0.1 0.9z m15.4-3l-0.2 1.4 0.2 1.2 0.2 0.7 0.2 0.7 0.2 0.5 0.5 0.2h0.4l0.7-0.2 0.5 0.2 0.5 0.2 0.5 0.5 0.5 0.7 0.5 0.7 0.5 0.5 0.7 0.2h1.9l0.5-0.2 1.2-1.6 0.2-0.2h0.5l0.2-0.2 0.5-0.4 0.5-0.7 0.5-0.7 0.5-1.4 0.2-1.2v-1.2l-0.2-0.7-0.2-0.7-0.2-0.5-0.5-0.2-0.2-0.2h-0.5l-1.4 0.2h-1.2l-0.9-0.2-1.6-0.5h-1.6l-0.5 0.2h-1.8l-0.2 0.2-0.5 0.2-0.2 0.2v0.2l-0.5 0.5v1.6h-0.4z m-18.9-23.2l0.7 0.9 0.9 1.1 0.5 0.9 0.2 0.5 0.5 0.7 0.7 0.5 1.2 0.5H548.1l1.6-0.2 0.9-0.2 0.9-0.5 0.5-0.7 0.2-0.5 0.2-0.5v-0.7l-0.2-0.5v-1.6l0.2-0.7 0.7-1.9 0.5-1.2 0.2-0.9v-0.9l-0.2-0.7-0.2-0.5-0.2-0.2h-0.2l-0.5-0.2h-0.5l-0.9 0.2h-0.7l-1.2-0.2-1.9-0.5-0.5-0.2h-0.5l-1.2 0.5-1.2 0.5-1.2 0.7-1.4 1.6-0.7 0.7-0.7 0.7-0.2 0.5V489.2l0.2 0.7 0.5 0.3 0.4 0.4z m33.2 3.3h-0.2 0.2z m-41.9-28.1H535.2l1.6-0.2 1.4-0.5 0.7-0.5 0.5-0.2 0.5-0.5 0.2-0.5-0.2-0.5-0.2-0.7-2.6-2.1-1.9-1.9-0.7-0.9-0.5-0.7-0.7-0.5-0.9-0.9-0.5-0.7-0.2-0.7v-1l0.7-0.9v-0.7l-0.2-0.2-0.2-0.7-0.2-0.5-0.5-0.5-0.7-0.7v-0.5l-0.2-0.7-0.5-0.7-0.2-0.7v-0.7l0.2-0.9v-0.2l0.2-0.5 0.5-0.2 0.2-0.5 0.5-0.2h0.7l0.7-0.2h9.7l0.9-0.2 0.7-0.2 0.5-0.2 1.2-0.2 1.4-0.2h3.2l1.6 0.5 0.9 0.2 0.7 0.2 0.7 0.5 0.7 0.5 0.5 0.2 1.4 0.7 1.6 0.5h1.9l0.5 0.2 0.2 0.2v0.9l-0.2 0.7-0.5 0.5-0.7 0.5-0.2 0.9-1.2 1.9-0.7 0.9-0.7 0.9-0.7 0.7-0.7 0.5-0.5 0.5-1.2 1.2-0.5 0.9-0.5 1.2-0.5 1.2-0.2 1.2-0.2 0.7v0.7l0.2 0.7 0.5 0.7 0.9 0.5 0.7 0.2h0.9l2.1-0.2 1.1 0.5 3 0.2 2.1 0.2 2.1-0.2h0.9l1.2-0.2 0.9-0.2 1.2-0.2 7-0.5 8.2-0.5h1.4l1.6-0.5 0.7-0.2 0.7-0.2 0.7-0.5 0.7-0.5 0.2-0.2 0.7-0.2 1.6-0.2h1.8l2.1 0.5 2.1 0.7 0.9 0.5 0.9 0.5 0.7 0.7 0.2 0.5 0.2 0.5 0.2 0.9 0.2 0.9V471.8l-0.2 1.6-0.5 1.4-0.2 0.7-0.5 0.5-0.5 0.5-0.5 0.7-0.2 0.7-0.2 0.7-0.2 0.5v4.1l-0.2 0.7-0.5 0.7-0.7 0.5-0.7 0.5h-1.2l-0.9-0.3-1.4-0.5-1.2-0.5-1.2-0.2-0.9-0.2-0.9-0.2-0.9 0.2h-0.7l-0.5 0.2-0.4 0.2-0.2 0.2-0.2 0.2-0.9 0.2-1.2 0.2h-2.8l-1.4-0.2-0.9-0.2-0.5-0.2-0.2-0.2h-0.5l-0.5-0.2-0.9-0.2h-2.8l-2.6 0.5h-0.5l-0.5 0.7-0.5 0.7-0.7 1.2-0.5 1.2-0.5 1.4v3.2l0.2 0.7 0.5 0.5 0.2 0.5 0.5 0.5h0.5l0.5 0.2h0.9l0.9-0.2 0.7-0.2 0.7-0.2 0.7-0.2 0.7-0.5 0.9-0.2 1.4-0.2 1.4-0.2 1.4 0.2h1.9l1.9 0.5 0.9 0.5 0.7 0.2 0.7 0.5 0.5 0.7 0.7 0.9 0.4 1.2 0.2 0.9-0.2 0.9v1.4l0.2 1.9 0.5 2.6 0.2 1.2 0.5 1.2 0.2 0.5v0.5l0.2 1.2-0.2 1.4-0.2 1.2-0.5 2.3-0.5 1.4v0.2l-0.2 0.7-0.2 1.4v6.3l0.5 5.6 0.9 7.7 0.5 4.9 0.7 5.4 0.2 1.9v1.6l0.2 3.5v3.5l-0.2 3-0.5 4.9-0.2 2.1-0.2 0.7-0.2 1.2-0.5 1.9v0.9l0.2 1.2v1.6l-0.2 0.5h-0.2l-1.2 0.2h-1.6l-11.2-0.7-0.9-0.2h-4.4l-0.9 0.2-0.7 0.2h-3.8l-1.6-0.5-0.9-0.2-0.9-0.3-1.6-0.9-0.9-0.5-0.7-0.7-2.3-0.7-1.9-0.5-1.2-0.2 0.2-0.2 1.4-0.9 0.9-0.7 0.7-0.9 0.7-0.7 0.2-0.9 0.2-0.7v-0.9l-0.2-1.2-0.2-0.5-0.2-0.5-0.5-0.4-0.5-0.2-0.5-0.5h-0.7l-0.9-0.2h-14.8l-0.9 0.2h-2L534 562l-0.5-0.2-0.5-0.2-0.5-0.5-0.2-0.5-0.2-0.5v-0.7l-0.5-5.6v-0.5l0.2-0.9 0.2-0.4-0.2-0.5-0.2-0.2-0.5-0.5v-0.5l-0.2-1.2v-1.4l0.2-0.7 0.5-0.5v-2.8l-0.9-1.6 0.2-6.1 0.2-2.1-0.2-0.2-0.2-0.5-0.7-0.5-0.7-0.5-0.9-0.5-1.4-0.2-1.6-0.2-0.7 0.2h-0.4l-0.2 0.5v0.5l0.2 0.9 0.2 0.5v0.5l-0.2 0.5v2.3l0.2 1.6 0.2 1.4 0.9 22.5v4.7l-0.2 1.2-0.5 0.9-0.5 0.5h-0.2l-0.7 0.5-0.5 0.2-0.2 0.2v0.2l0.2 0.2h0.2l0.2 0.2H520.6l-0.7 0.2-0.5 0.5-0.5 0.9h-0.2l-0.2 0.2-0.5 0.2h-1.4l-0.9-0.2-1.4-0.5-5.4-1.4h-0.4l-0.5-0.2v-0.2l-0.2-0.2-0.2-0.5-0.2-0.9V565.7l-0.2-2.6-0.3-2.1-0.2-1.6v-1.6l-0.2-3.3v-23.4l0.2-1.7-1.6-24.3-0.2-1.6v-3.9l0.2-0.7 0.5-0.7 0.2-0.5V495.6l0.2-0.2v-0.4l0.2-0.2 0.2-0.2 0.9-0.2 1.4-0.2h3.8l3.3 0.5 1.7 0.2 1.4 0.5 1.2 0.2 1.2 0.2 1.2-0.2h1.2l1.6-0.5 0.7-0.2 0.2-0.2h0.5l0.2-0.5 0.2-0.2v-1.2l-0.2-0.7-0.7-1.4-0.7-0.9-0.5-0.7-0.2-0.7-0.2-0.9-0.5-0.5-0.2-0.5-0.5-0.5-0.5-0.2h-0.9l-0.9 0.2-0.2 0.2-1.4 0.7-0.9 0.2-1.4 0.2-1.4 0.2h-1.9l-4.2 0.5-3 0.5H503.6l-1.9 0.2-3 0.7-0.9 0.2h-0.8l-0.5 0.2h-0.5l-0.5-0.2-0.5-0.5-0.2-0.5-0.7-1.4-0.5-0.7-0.5-0.5h-0.2l-0.5-0.7-0.2-0.9v-2.3l0.2-0.5-0.2-0.5-0.2-1.2-0.2-0.7-0.5-0.7-0.5-0.7-0.7-0.7-0.5-0.7-0.5-0.7-0.5-0.9v-0.7l-0.2-0.7-0.2-1.7V470l0.2-2.3 0.2-2.1v-3.2l0.2-0.5 0.2-0.2h0.2l0.5-0.2 0.5 0.2 0.5 0.2 0.7 0.5 0.2 0.5 0.7 0.5 0.9 0.5 1.2 0.7 1.4 0.5 0.9 0.2h0.9l1.2 0.2h1.2l32.1 0.3zM691 479.2l-0.7 1.4-0.2 1.2v0.9l0.2 0.9 0.2 0.7 0.2 0.5 0.5 0.5h2l0.5 0.5 0.5 0.2 0.5 0.5 0.5 0.2 0.5 0.2 0.7 0.2h1.2l0.5-0.9 1.9-3 0.7-0.9 0.2-0.9v-0.5l-0.2-0.7-0.2-0.2-0.2-0.3-0.2-0.2-4-3.3-0.7-0.2h-0.5l-0.5-0.2-0.5 0.2-0.5 0.2-0.2 0.2-0.7 0.7-0.5 0.7-0.5 0.7-0.5 0.7z m-10.6 19.1v0.4l-0.2 1.2-0.5 1.4-0.2 0.5-0.2 0.2h-0.2l-0.5 0.2-0.2 0.5v0.3l0.2 0.5 0.2 0.2 0.5 0.2 0.7 0.2h2.4l0.7-0.2 0.5-0.2 0.2-0.5 0.5-0.7 0.2-0.7v-1.1l-0.2-0.5-0.2-0.5-0.5-0.5-0.7-0.7-0.5-0.2h-2z m14.1 25.3l0.2 3v0.5l0.2 0.2 0.2 0.5 0.2 0.2 0.7 0.2 0.9 0.2h1.4l1.4-0.2 0.7-0.2 0.5-0.2 0.2-0.3 0.2-0.2-0.2-0.2 0.5-0.9 0.5-0.7 0.5-0.5 0.2-0.2 0.5-0.2v-1.2l-0.2-0.7-0.5-0.7-0.5-0.7-0.7-0.4-0.7-0.3-1.9 0.3h-0.5l-0.9 0.4-0.9 0.7-0.7 0.7-0.7 0.5-0.5 0.2-0.1 0.2z m-1.2 17.3l-0.2 0.7v0.5l0.2 0.5 0.9 1.4 0.5 0.9 0.7 0.7 0.5 0.5 0.7 0.2 1.2 0.5h1.2l1.2 0.2h0.7l0.9 0.2h0.9l0.9-0.2 0.9-0.2 0.7-0.5 0.2-0.2v-0.5l0.2-0.5v-1.7l-3.5-4.2-4.5-0.5h-1.2l-0.9 0.2-0.7 0.5-0.5 0.2-0.9 0.9-0.1 0.4z m3.1-36.7h0.9l0.9 0.2h0.2l0.2 0.2 0.7 0.5 0.7 0.3 0.7 0.2h1.6l1.4 0.2 1.4 0.7 0.7 0.5 0.5 0.5 0.2 0.2 0.2 0.5 0.2 1.2 0.2 1.4v1.6l-0.2 3.1v2.3l-0.2 1.9-0.2 0.9-0.2 0.9-0.5 1.4-0.2 0.7-0.2 0.7v1.2l-0.2 0.9v1.4l0.2 1.1 0.2 0.9 0.2 0.5 0.2 0.2 0.5 0.7 0.5 0.5 0.2 0.7v1.4l-0.7 1.9v2.8l0.2 2.6 0.2 2.1 0.2 2.1v1.2l-0.2 1.2-0.2 1.2-0.2 0.7-0.5 0.5-0.7 1.2-0.9 0.7-0.5 0.4-0.5 0.3-0.7 0.9-0.2 0.2v0.5l-0.2 0.5 0.2 0.7v0.5l0.2 0.2h0.5l0.5 0.2 0.5 0.7 0.2 0.9 0.5 0.7 0.9 0.5 0.9 0.5 0.7 0.2 0.9-0.2h0.7l0.7-0.5 0.5-0.2 0.2-0.2 0.5-0.7 0.2-0.2v-3l0.2-0.9 0.5-0.7 0.5-1.4 0.5-0.5 0.7-4 0.2-0.5 0.5-1.2 0.5-1.2v-0.7l-0.2-0.5-0.2-1.2v-1.9l-0.5-5.4-0.2-7.5-0.5-13.8-1.2-9.6-0.9-14.3-0.9-1.2-0.7-0.5H708.8l-0.5 0.2-0.5 0.5-0.5 0.5-0.2 0.5V490.5l-0.5 0.9-0.2 0.5-0.5 0.2-0.5 0.5-0.2 0.5-0.5 1.2-0.2 0.5v0.7l-0.2 0.7 0.2 0.9v1.2l-0.2 0.4-0.2 0.2h-0.7l-0.9-0.2-0.9-0.4-1.2-0.2h-1.2l-1.1 0.2-1.9 0.4-0.7 0.2-0.7 1.2-0.2 0.7v1.5l0.2 0.2 0.2 0.5 0.2 0.2 0.2 0.2 0.5 0.5 0.5 0.3z m29.4-20.4l-0.5 0.7-0.2 0.2h-0.2l-0.5 0.3v0.5l0.2 1.6 0.2 0.9 0.2 0.5 0.2 0.5 0.2 0.2h0.5l0.9-0.2 2.1-0.2h2.1l0.9 0.2 0.7 0.2 0.9 0.5 1.2 0.2h0.7l0.9-0.2 0.9-0.5 0.5-0.5 1.9-2.3 0.5-0.2 0.7-0.5 0.5-0.5 0.5-0.5v-1.2l-0.5-0.9-0.5-0.9-0.7-0.5-0.5-0.5-0.7-0.2h-1l-0.5 0.2-0.5 0.2-0.7 0.2-1.2-0.1h-1.4l-0.7 0.2-0.3 0.2-0.5 0.7-0.5 0.5-0.7 0.5h-2.3l-1.4 0.2-1.4 0.5z m1.9 19.7l-1.6 1.9-0.7 0.9-0.5 0.7V507.9l0.2 0.2 0.2 0.2 0.2 0.9 0.2 0.9 0.5 0.5 0.2 0.7 0.2 0.2 0.5 0.2 0.9 0.2h2.4l2.1-0.2 0.7-0.2 0.2-0.2 0.5-0.5 0.5-0.2 0.7-0.2h0.9l1.2-0.2 1.4-0.2 0.9-0.2 0.5-0.2 0.5-0.5 0.2-0.5 0.2-0.5v-0.9l0.2-0.9-0.2-1.4-0.2-0.5-0.2-0.7-0.5-0.5-0.5-0.5-1.4-0.9-0.7-0.2-0.7-0.2h-0.7l-0.7 0.2-0.7 0.2-0.7 0.7-0.5 0.5-0.5 0.2-0.9 0.5-0.9 0.2h-0.9l-1.2-0.2h-0.7l-0.6-0.2z m4.9 20.1l-0.5 0.2-0.7 0.9-0.2 0.5-0.2 0.7v1.2l0.2 0.5 0.5 1.2 0.7 0.9 0.7 0.7 0.5 0.2 0.2 0.5 0.9 1.2 0.7 1.4 0.2 0.2 0.2 0.2h0.5l0.5 0.2 0.7-0.2 0.7-0.2 0.9-0.7 2.3-1.4 2.6-1.4 2.6-1.2 4.2-3.3v-0.2l0.2-0.2v-0.5l-0.2-0.5-0.2-0.5-0.7-0.5-0.7-0.2-5.4-1.2-1.4 0.2-2.8 0.7-4 0.7-0.9 0.2h-0.9l-0.7-0.2-0.5-0.1z m-7.7 10.5v3.3l-0.2 4-0.2 0.7v5.6l0.2 1.2v0.5l0.2 0.5 0.5 0.5 0.5 0.5h1.2l0.7-0.2 0.5-0.2 0.2-0.5 0.2-0.2 0.2-0.2 0.5-0.5 0.5-0.2h0.2l1.2-0.5v-0.9l0.5-0.5 0.7-0.9 0.7-1.1 0.2-0.5 0.2-0.5 0.2-0.9v-0.7l-0.2-0.9-0.2-0.7-0.2-0.7-0.5-0.5-0.5-0.5-0.5-0.2-0.2-0.2-0.2-0.5-0.9-1.2-0.7-1.4v-1.7l-0.2-0.5-0.2-0.2-0.7-0.5-1.2-0.2h-0.9l-0.7 0.2-0.2 0.5-0.2 0.2-0.2 0.5v0.2h-0.3z m-41.2-88.6v-0.7l0.2-0.5 0.2-0.7 0.2-0.5 0.2-0.2h0.4l0.5 0.2 0.2 0.2 0.5 0.5 2.3 2.3 0.9 1.4 0.7 1.2 0.5 0.9 0.2 0.9 0.7 0.9 0.9 0.7 0.9 0.7 0.5 0.2 0.5 0.5 0.7 0.9 0.2 0.9 0.2 0.2v0.4l0.2 0.5 0.9 0.7 2.1 1.4 0.2 0.2 0.5 0.5 0.2 0.7V460.8l0.5 0.7 0.5 0.7 0.2 0.9 0.2 0.9v1.2l0.2 0.8-0.2 0.5-0.5 0.5-0.5 0.5-0.5 0.5v0.7l0.2 0.5 0.2 0.7 1.2 0.9 0.9 0.5 2.1 0.9h0.9l0.7 0.2 0.7-0.2 0.7-0.3 0.9-0.9 0.9-0.9 0.7-1.2 0.2-0.4v-0.2h-0.2l-0.2-1.2-0.2-1.4-0.2-1.4 0.2-0.7 0.2-0.5 0.2-0.7V460.3l-0.2-1.2-0.2-0.5v-1.9l0.2-0.7 0.2-0.2 0.2-0.2h0.4l0.7 0.5 5.2 3.5 2.8 2.3 0.9 0.9 0.5 0.7 0.2 0.2 0.5 0.2h1.2l4.2-0.7 2.8-0.2 3.3-0.2h1.7l1.6 0.2 1.9 0.2 1.9 0.5 0.7 0.2H742.2l0.9-0.2h0.5l0.5-0.2 0.2-0.2 0.5-0.2 0.5-0.7 0.7-0.2 0.9-0.5h0.5l0.2 0.2 0.7 0.3h0.2v-0.5l0.7-0.7 0.2-0.5 0.5-0.5 0.7-0.2h1.9l0.9-0.2 1.6-0.9 0.7-0.2 0.5 0.2 0.7 0.7 0.2 0.7V463.3l0.2 0.7v0.9l0.2 0.7 0.2 0.7v0.2l0.2 0.5v3.2l-0.2 1.9-0.2 3.5v1.6l-0.2 0.2-0.5 0.7-0.5 0.7-0.2 0.5v0.5l-0.2 2.1-0.5 3.8-0.5 4.2-0.5 1.7-0.2 0.7-0.2 0.5-0.2 0.7-0.2 0.7V501l0.5 4.9 0.5 3.5v0.7l-0.2 1.4-0.2 2.1-0.2 0.9-0.5 1.2-0.5 0.9-0.5 1.4-0.2 1.2v2.4l0.2 0.5v0.5l0.5 0.5 0.2 0.2h1l0.9-0.2 0.9-0.2 0.9-0.5 0.5-0.5 0.7-0.7 0.5-0.9 1.2-1.9 0.7-1.4 0.2-0.5 0.5-0.2h0.2l0.2 0.2 0.7 1.2h0.5l0.7 0.2 0.7 0.5 0.7 0.5 0.5 0.7 0.2 0.5v1.7l-1.2 3 0.9 1.6 0.2 0.2v0.5l-0.2 0.2-0.2 0.5-0.2 0.3-0.2 0.7v1.9l0.5 0.9 0.5 0.7 0.2 0.2 0.5 0.2 0.2 0.2 0.5 0.7 0.2 0.2-0.2 0.2-0.5 0.5-0.9 0.2h-0.5l-0.5 0.2-0.5 0.2-0.7 0.5-0.5 0.5-0.5 0.7-0.2 0.7-0.9 0.2-0.9 0.2-1.2 0.2h-3.9l-0.9-0.2-2.1-0.5-1.9-0.7-1.2-0.2h-1.4l-0.2 0.2-0.2 0.5-0.5 0.9-0.7 0.9-0.2 0.7v1.4l0.2 0.5 0.2 0.5 0.9 0.9 1.2 0.9 0.9 0.5 0.7 0.2 1.4 0.5 1.4 0.5h1.4l1.6 0.2 0.9 0.2 0.7 0.2 2.1 0.9 2.3 1.2 0.7 0.5 0.9 0.2 0.7 0.2h2.5l1.4-0.2 1.4-0.2 0.9-0.5 0.9-0.5-0.2 1.6-0.5 3.7-0.5 2.1-0.7 2.3-0.7 2.3-1.2 2.1-2.1 3-1.4 1.9-0.9 1.2-0.7 0.5-1.6 1.4-1.6 1.6-0.7 0.9-0.2 0.5-0.2 0.7h-0.7l-0.9-0.5v-0.2l-0.2-0.2-0.5-0.7-0.5-0.7-0.5-0.2-0.5-0.5h-0.5l-0.9-0.2-0.9-0.5-0.9-0.9-1.4-1.4-0.7-0.2-1.4-1.2-0.9-1.2-1.2-1.2-1.4-1.6-1.4-2.1-0.5-1.2-0.5-0.9-0.5-1.1-0.5-0.7-0.2-0.5-0.5-0.5-0.5-0.2-0.7-0.3h-1.1l-0.5 0.5-0.9 0.7-0.5 0.5-0.2 0.5v0.7l-0.5 0.7-0.7 0.7-1.4 1.2-0.9 0.7-0.7 0.5-0.9 0.9-0.5 0.5-0.2 0.5-0.2 0.7-0.2 0.5v1l-0.7 1.2-0.7 0.7-0.9 1.2-1.4 0.9-0.9 0.7-0.9 0.5-2.1 0.9-3 0.9-4 2.1h-4l-0.9 0.7-0.9 0.5-1.2 0.5-1.2 0.5h-1.2l-0.5-0.2-0.5-0.2-0.5-0.5-0.2-0.5v-1.6l-0.2-0.5-0.2-0.7-0.2-0.5-0.5-0.2-0.2-0.2-0.2-0.2v-1.6l0.2-2.3-0.2-0.9-0.5-0.7-0.8-1-0.7-0.9-0.7-0.5-0.9-0.4-0.7-0.2-0.5-0.2h-0.7l-0.5 0.2h-0.5l-0.5 0.2-0.7 0.4-0.7 0.7-0.9 1.2-0.2 0.7-0.2 0.2-0.9 0.7-0.5 0.2-0.7 0.2-0.9 0.2-0.9-0.2h-0.5l-0.5 0.2-0.5 0.5-0.5 0.5-0.7 0.9-0.2 0.5-1.9 0.9-1.4 0.5H681.4l-0.2 0.2-0.7 0.7-0.7 1.2-0.2 0.2-0.2 0.2-0.5 0.2h-0.5l-0.7-0.2-0.2-0.2-0.2-0.5-0.9-0.9-3.7-4.2-1.4-2.1-0.2-0.7-0.9-0.9-0.5-0.7-0.7-0.7-0.7-0.2-0.5-0.2-0.2-0.2h-0.7l-0.2-0.5-0.2-0.5v-0.5l0.2-0.7 0.2-0.5-3.3-7.7v-0.4l0.2-0.2h0.2l0.2-0.2h0.7l0.7 0.2 1.2 0.2 1.2 0.2H672.2l1.4-0.2 1.2-0.5 0.9-0.7 0.9-0.7 0.9-0.2 0.9-0.2 0.5-0.2h1.2l0.2 0.2 0.7-0.2 1.4-1.2 0.7-0.9 0.5-0.9 0.2-0.7 0.2-0.7 0.2-0.7v-1.8l-0.2-0.7-0.2-0.7-0.2-0.5-0.2-0.2-0.4-0.2-0.7-0.2-0.7-0.2-0.7 0.2h-0.7l-0.2 0.2-0.7 0.2-0.5 0.5-0.5 0.5-0.5 0.7-0.5 0.9-0.2 0.2-0.2 0.5-0.7 0.7-0.9 0.7-0.9 0.7-1.2 0.5-0.9 0.5h-1.2l-0.5-0.7-0.5-0.5V541.8l-0.2-0.9-0.5-1.9-0.5-1.4-0.2-0.7-0.2-0.9-0.7-2.1-0.2-1.1V530.5l0.2-0.5h0.2l0.2-0.2 0.9-0.3h0.9l0.9 0.3 1.9 0.2 0.7 0.2h1.6l1.4 0.2h1.6l1.9-0.2 1.4-0.5 0.5-0.3 0.5-0.5 0.5-0.5v-0.7l0.5-2.1v-1l-0.2-0.7-0.2-0.7-0.5-0.5-0.9-0.2h-0.9l-5.9 1.4-0.5 0.2-0.5-0.2h-0.5l-0.5-0.2-0.7-0.2-0.5-0.7-0.2-0.5v-0.2l-0.5-0.9-0.5-0.7-0.7-0.7-0.5-0.7-0.5-0.2h-1.2l-0.5 0.5-0.5 0.5v0.7l-0.2 0.9-0.2 0.9v0.9l-0.5 1.2-0.7 1.2-0.5 0.7-0.5 0.5-0.2 0.5-0.2 0.5-0.2 1.1-0.2 0.5-0.5 0.7-0.7 0.5-0.5 0.5h-0.2l-0.2 0.2v0.6l-0.2 0.7v0.7l0.2 1.6v1.1h-0.2l-0.5 0.2h-0.5l-0.7-0.2-0.5-0.2-0.9-0.7-0.9-0.5-0.7-0.2-0.7-0.4-0.7-0.7-0.5-0.7-0.5-0.7-0.2-0.7v-0.5l-2.8-0.9h-0.9l-0.7-0.2-0.9-0.3-0.9-0.5-0.2-0.2-0.5-0.5-0.2-0.4V523.6l-0.2-0.2-0.2-0.2h-0.5l-0.2-0.2-0.5-0.2v-0.2l0.2-0.5 0.2-0.2 0.9-0.7 0.5-0.2 0.7-0.3 1.9-0.7 2.3-0.7h0.5l1.2-0.2 1.6-0.4 0.9-0.5 0.9-0.5 1.1-0.7 1.2-0.9 1.2-1.2 1.2-1.2 1.2-1.6 1.2-1.6 1.2-2.1 1.2-2.3 8.9-18.7 2.6-11.2 2.1-8.9 1.2-3.7 0.7-2.6 0.2-0.9 0.7-2.1 0.5-2.8 0.5-1.6 0.2-1.6 0.2-4.7v-1.8h-0.2z m184.4 17.7l2.8 0.9 4.4-0.2 6.3 0.5h1.2l0.7-0.2 1.6-0.7 0.5-0.2 0.7-0.2h0.9l1.2 0.2 3.5 0.5 5.4 0.7 1.4 0.2h4.2l2.3-0.2 1.9-0.5 1.6-0.7 0.9-0.5 0.9-0.5 5.4-2.8v-0.3l0.2-0.5 0.2-0.2 0.7-0.5 0.9-0.5 1.4-0.5 1.9-0.2 0.9-0.2h0.7l0.7 0.2 0.5 0.2 0.5 0.2 0.2 0.5 0.2 0.2 0.2 0.5v0.9l-0.2 0.7v6.7l-0.9 7.3-0.2 4.9-0.2 1.2-0.9 3.7-0.5 0.9-0.2 0.5-0.5 0.2-0.5 0.2-0.2 0.2h-1.2l-2.6-0.5-3-0.7-1.9-0.3h-1.6l-1.9 0.3h-1.9l-3.3 0.5-2.3 0.2H895.9l-9.6 0.7-14 0.7-0.9 0.2-0.7 0.2-0.5 0.2v-3.5l-0.2-2.8-0.2-1.2-0.2-0.9-0.2-0.9-0.2-0.9-0.2-2.1-0.2-4-0.2-1.6-0.5-1.9-0.7-2.6-0.4-0.7-0.2-0.7v-0.5l0.5-0.2h0.8v0.4z m-13.4-14.5l0.9-0.2 0.9-0.5 0.2-0.2 0.2-0.5h0.2l0.2 0.5 0.7 1.4 0.5 0.7 0.5 0.5 0.9 0.5h1.9l0.2 0.3V453.3l0.2 0.5 1.2 1.9 0.2 0.5 0.2 0.2 0.2 0.2V457.5l-0.5 0.7-0.2 0.7-0.9 0.9-0.7 1.4-0.5 0.9v2.1l0.2 0.9 0.5 1.2 0.2 1.2 0.2 1.9v1.6l-0.2 0.5 0.2 1.9 0.2 1.2v0.7l0.2 0.3v0.5l0.2 0.7v1.6l-0.2 1.9-0.2 0.7-0.2 0.5-0.2 0.2-0.2 0.5v2.4l0.2 1.4v0.7l-0.2 0.2v0.2h0.1-0.5l-0.2-0.2h-0.5l-1.2-0.2-0.7 0.2h-0.9l-0.7 0.2-0.7 0.5-0.7 0.5-0.5 0.5-0.2 0.5-0.2 0.5-0.2 0.5-0.2 0.5v2.3l0.2 0.9 0.2 0.7 0.5 0.7 0.5 0.7 0.9 0.2 0.7 0.2H859.7l0.9 0.5 0.5 0.5 0.5 0.5 0.2 0.5v0.7l0.7 1.4 0.5 0.7 0.5 0.4 0.5 0.5 0.5 0.5 0.7 0.7 0.2 0.5 0.5 0.5 0.2 0.5 0.7 0.2h0.5l0.5-0.5 0.5-0.5 0.2-0.5 0.5-0.7 0.2-0.5v-1l-0.2-0.7-0.2-1.9V497.7h0.2v-0.2l0.2-0.2 0.5-0.2 0.5-0.2h0.2l2.1-0.2 4-0.2 11.2-0.2 15.7-0.2 7.5-0.7 1.9-0.2 4.7-0.2 5.2-0.7 2.1-0.5 1.6-0.5 2.6-1.1 2.1-1.4 1.6-1.2 0.5-0.5 0.2-0.5h0.2v1.9l-0.5 2.4v2.1l-0.2 2.1 0.2 6.1v3.3l-0.2 1.2v0.5l-0.2 0.2-0.5 0.9v1.5l0.3 0.7 0.9 1.4 0.5 0.9 0.2 0.7v0.7l-0.2 0.2h-0.2l-0.5-0.2-0.2-0.2-0.5-0.5-0.5-0.2h-1.9l-0.9 0.5h-0.7l-0.9 0.2-1.9-0.2h-0.5l-0.5 0.2-0.5 0.2-0.5 0.5h-0.4l-2.6-0.2-4-0.9h-1.6l-1.6 0.2-2.1 0.7h-1.8l-0.9 0.2-0.7 0.2-0.7 0.5-0.5 0.7-0.2 0.5v0.5l0.7 3.7 0.5 1.9-0.5 2.3-0.2 1.9-0.2 1.9-0.2 0.7v0.7l0.2 0.5v0.5l0.5 0.7 0.5 0.9v0.5l0.2 1.2 0.2 3.3 0.7 9.6 0.7 13.8v13.1l-0.2 0.5-0.5 0.7-0.7 0.5-0.7 0.2-1.6-1.2-1.6-0.2H890l-6.8-0.9-4.9-0.5-0.5-0.7-0.5-0.7-0.5-1.2-0.2-0.5-0.2-0.2-0.2-0.2H875l-0.5-0.2-0.5-0.5-0.7-1.2-0.7-1.4-0.2-0.7v-0.9l0.2-0.7 0.7-0.5 0.2-0.5 0.2-0.2 0.2-0.5V562.7l0.2-0.5h0.7l0.9 0.5 1.9 0.7 1.6 0.5 0.9 0.2 0.7-0.2 0.9-0.5 1.2-0.5 1.6-1.6 1.4-1.2 0.9-0.9 0.2-0.5 0.7-3v-3l0.2-2.8 0.2-1.4 0.2-1.4 0.5-1.2V543l-0.2-1.4-0.2-1.9-0.2-0.9V536l0.2-2.3 0.2-1.9 0.2-0.7v-1.2l-0.2-2.3-0.2-3-0.2-6.1v-1.2l-0.2-0.5-0.2-0.3-0.5-0.5-0.2-0.2-0.7-0.2-1.4-0.2-2.1 0.2-6.8 0.7-1.9 0.2-8.7-0.9-0.2-0.2-0.2-0.2v-0.4l0.5-0.9 0.5-0.7 0.5-0.9v-0.5l0.2-0.5v-0.3l-0.2-0.2-0.2-0.5-0.5-0.2h-0.9l-1.9 0.2H862l-0.2 0.2-0.5 0.2-0.2 0.2v1l-0.2 0.2-0.2 0.2-0.5 0.2h-0.9l-1.4 1.9-1.4 1.2-0.5 0.5-0.5 0.2h-0.2l-0.2 0.2v0.5l0.5 0.9 0.2 0.7 0.2 0.7 0.2 0.5-0.2 0.7-0.2 0.7v0.5l0.2 0.5v0.5l0.2 0.2 0.5 0.5 0.7 0.5 0.2 0.5 0.2 0.5v1.2l-0.2 2.8v0.9l0.2 0.9 0.2 1.2-0.2 1.2-0.2 1.4-0.2 1.9v3.8l0.2 1.6 0.2 1.4 0.2 0.5v3.3l-0.2 1.4-0.5 4 0.5 5.4-0.5 6.1v0.9l-0.2 0.9-0.2 0.9-0.2 1.2-0.2 1.2-0.5 0.9-0.5 0.7-1.2 1.2-0.9 0.9-1.2 0.7-0.5 0.9-0.5 0.7-0.2 0.5-0.2 0.3-0.5 0.2-0.9 0.2-1.2 0.2H845.6l-1.6-0.4-0.9-0.2-0.9-0.5-2.8-1.4-2.1-0.9-1.4-0.9-0.5-0.2h-0.2l-1.2-0.5h-1.2l-0.2-0.2-1.2-0.5-2.3-1.2-0.2-0.2-0.2-0.2v-0.7l0.2-0.2 0.5-0.2 1.2-0.5 1.4-0.5 1.2-0.5 0.5-0.2 0.2-0.2 0.2-0.2v-0.5l0.2-0.7 0.7-0.7 0.9-0.7 0.9-0.5 0.2-0.2v-0.2l0.2-0.5V558l0.2-1.2v-0.5l0.3-0.5 0.5-0.9 0.2-0.7v-1.4l-0.5-0.7-0.2-0.2 0.2-3-0.5-4.9-0.2-3.7v-1.6l0.2-1.4 0.3-0.9 0.2-1.2v-2.3l-0.2-1.2-0.3-0.9-0.4-0.9-0.2-0.3-0.5-0.2-0.5-0.2h-0.7l-0.7 0.2-0.5 0.2-0.5 0.3-0.5 0.5-0.2 0.2-2.6 2.3-0.7 0.9-0.9 1.2-0.9 1.2-1.2 0.9-1.2 0.7-0.7 0.2-0.7 0.2h-0.7l-0.7-0.2-1.2-0.5-0.7-0.2h-1.2l-0.5 0.5v0.2l-6.1-4v-0.5l-0.5-0.9-0.2-0.5-0.5-0.5-0.2-0.5-0.7-0.5-0.2-0.2-0.2-0.2v-1.4l-0.2-0.2-0.2-0.2h-0.2V527.8l0.2-0.3 0.5-0.5 0.9-0.5 2.1-1.2 1.4-0.5 1.4-0.7 1.2-0.7 0.5-0.5 0.7-0.2 1.2-0.5 1.4-0.5 1.6-0.7 0.5-0.2 0.7-0.5 0.5-0.5 0.2-0.7 0.2-0.5 0.5-0.4 0.5-0.5 0.5-0.2 0.9-0.2h0.5l1.4-1.4 1.2-0.7 0.7-0.5h0.2l0.5-0.2 0.2-0.2 0.5-0.9 0.5-1.2 0.5-0.5 0.2-0.5 0.9-0.9 0.7-0.5 0.5-0.5 1.2-1.4v-0.5l0.2-1.4 0.2-0.7 0.2-0.7 0.5-0.7 0.2-0.2 0.2-0.2 0.7-0.5 0.2-0.5 0.2-0.2v-0.5l-0.5-0.7-0.9-1.2-0.9-0.9-0.7-0.9-0.2-0.7H834.2l-0.7 0.2-0.5 0.5-0.2 0.4-0.9 1.2-0.9 0.9-0.9 0.7-2.3 1.9-0.5 0.2-1.4 0.5-0.9 0.2h-1.4l-0.2-0.2-0.5-0.5-0.4-0.2-0.7-0.2-0.5-0.2h-1.6l-0.2-0.7-0.5-0.7-0.7-0.9-0.2-0.5-0.2-0.5v-0.5l-0.2-0.5-0.2-0.2h-0.2l-0.2-0.2-0.5-0.2v-0.5l-0.2-0.2-0.2-0.7v-0.2l0.2-7.5 2.6-1.6 2.8-1.2 2.6-2.1 0.7-0.5 0.7-0.2 0.5-0.2h0.5l0.9 0.2h0.5l0.7-0.2 0.7-0.2 0.7-0.5 0.9-0.9 0.5-0.5 4.4-4.7 3.3-3.7 1.4-1.6 0.7-1.2 1.4-1.2 0.2-0.5 0.5-1.9 0.2-0.5v-0.5l0.7-0.5 0.5-0.2 0.2-0.2 0.2-0.5 0.2-0.9V461l0.2-1.2 0.2-1.2 0.7-0.5 1.6-1.2 0.5-0.5 0.2-0.5 0.4-1.2 0.5-1.2 0.5-0.9 0.7-0.9 1.2-1.2 1.4-1.2 1-0.6zM338 631.2h-1.5l-1.5-0.3-1.5-0.2-1.5-0.5-1.5-0.5-1.2-0.7-1.2-0.7-1.2-1-1-1-1-1-0.7-1.2-0.7-1.5-0.5-1.5-0.5-1.5-0.2-1.5v-3.4l0.2-1.7 0.5-1.5 0.5-1.5 0.7-1.5 0.7-1.2 1-1.2 1-1 1.2-1 1.2-0.7 1.5-0.7 1.5-0.7 1.5-0.5 1.7-0.2 1.7-0.2h4.1l1 0.2 1.2 0.2 2 0.7 2 0.7 1-1.5h2l0.2 10.5h-2l-0.5-1.7-0.7-1.7-1-1.5-0.5-0.7-0.5-0.7-0.5-0.7-0.7-0.5-0.7-0.5-0.7-0.5-1-0.2-0.7-0.2-1.9-0.2H338l-1.2 0.2-1 0.2-1 0.2-1 0.5-1 0.8-1 0.7-0.7 0.7-0.7 1-0.5 1-0.5 1-0.5 1.2-0.3 1.5-0.2 1.2-0.2 1.4v3l0.2 1.2 0.2 1.2 0.3 1.2 0.5 1.2 0.5 1 0.7 1 0.7 1 0.7 0.7 1 0.7 1 0.7 1 0.5 1.2 0.5 1.2 0.3 1.2 0.2h1.2l2-0.2 1.7-0.3 1.5-0.7 1.5-0.7 1-1 1-1 1-1.2 0.7-1.2 1.7 0.7-1.2 2-1.2 1.7-1.5 1.2-1.7 1.2-1.7 0.7-1 0.2-1 0.5h-1.2l-1 0.3H338v0.2z m52.2-0.5h-14.4v-1.5l1.7-0.2h1l0.7-0.2 0.5-0.3 0.5-0.5 0.2-0.5V616.6h-16.1v10.7l0.2 0.5 0.5 0.5 0.5 0.3 1.5 0.5 1.7 0.2v1.5h-14.4v-1.5l1.7-0.2h1l0.7-0.2 0.5-0.3 0.5-0.5 0.3-0.5V605.3l-0.3-0.5-0.5-0.5-0.5-0.5-1.7-0.5-1.7-0.2v-1.5h14.4v1.5l-1.7 0.2-1.5 0.2-0.5 0.5-0.5 0.5-0.2 0.3V614.5h16.1v-9.2l-0.2-0.5-0.5-0.5-0.5-0.5-1.7-0.5-1.7-0.2v-1.5h14.4v1.5l-1.7 0.2-1.5 0.2-0.5 0.5-0.5 0.5-0.2 0.3V627.1l0.2 0.5 0.5 0.5 0.5 0.3 1.5 0.5 1.7 0.2v1.6z m19.6 0h-15.6v-1.5l2-0.2h1.2l0.5-0.2 0.7-0.3 0.5-0.5 0.3-0.5 0.2-0.7v-21l-0.2-0.5v-0.5l-0.3-0.3-0.2-0.2-1-0.5-1.7-0.5-2-0.2v-1.5h15.6v1.5l-1.7 0.2-2 0.2-0.7 0.5-0.5 0.5-0.2 0.5V627.1l0.2 0.5 0.5 0.5 0.7 0.3 1.7 0.5 2 0.2v1.6z m39.5-27.6l-2.2 0.5-1.2 0.2-0.7 0.2-0.5 0.2-0.2 0.5-0.5 1.2-0.3 1.7v23.3h-2.2l-21-23.7v17.1l0.5 1.7 0.5 1.2 0.5 0.7 1 0.2 1.5 0.5 2.2 0.5v1.5h-14.2v-1.5l1-0.2 1.2-0.2 1.2-0.3 0.7-0.5 0.5-0.2 0.2-0.3 0.2-0.5 0.3-0.7 0.2-1.5V607l-0.2-1-0.5-0.7-0.7-0.7-1-0.5-1.2-0.7-1.5-0.2-1-0.2v-1.5h9.8l19.5 22.2v-16.1l-0.5-1.7-0.2-1-0.5-0.5-0.2-0.2-1-0.5-1.2-0.2-2.4-0.5v-1.5h14.2v1.6h-0.1z m34.7 27.6h-14.6v-1.5l2-0.2 1.2-0.2 1-0.3 0.3-0.3 0.2-0.2-0.2-0.5v-0.5l-2.9-6.3h-12.2l-0.5 1.2-0.5 1.2-0.7 2-0.5 1.4-0.3 0.7 0.3 0.5 0.2 0.2 1.2 0.7 1.5 0.2 2 0.2v1.5h-13.2V629l1.7-0.2 0.7-0.2 0.7-0.3 1-0.7 0.5-0.5 0.7-0.7 0.5-1 2.7-5.6 2.9-6.6 5.6-12h2l11.7 24.9 0.3 0.7 0.5 0.5 0.5 0.5 0.7 0.5 0.7 0.3 0.7 0.2 1.7 0.2v1.7h-0.1z m-14.2-12l-5.1-11.2-5.1 11.2h10.2z m68.2 12h-15.4v-1.5l2.2-0.2h1l0.7-0.2 0.7-0.5 0.5-0.5 0.3-0.5v-21.7h-0.3l-12 24.7h-1.2l-11.2-25.2h-0.2v19.6l0.2 1.5 0.5 1.2 0.5 0.2 0.3 0.5 1 0.2 1.2 0.5 2.2 0.5v1.5h-14v-1.5l2.2-0.5 1.2-0.3 0.7-0.3 0.5-0.5 0.3-0.3 0.3-0.5 0.2-0.5 0.3-1.7v-18.4l-0.3-1-0.5-0.7-0.7-0.5-0.7-0.5-1-0.2-1.2-0.2-1-0.2v-1.5H507l10 21.8 8.5-18.1 0.7-2.2 0.2-1.5H538v1.5l-1.7 0.2-1.7 0.2-0.7 0.5-0.2 0.5-0.3 0.5-0.3 0.7v20.7l0.3 0.7 0.3 0.5 0.2 0.5 0.7 0.3 1.7 0.5 1.7 0.2v1.7z m33.2-8.6l-0.5 8.6h-28.8v-1.5l2-0.2h1l0.5-0.2 0.7-0.5 0.5-0.2 0.2-0.7V605.3l-0.2-0.5-0.2-0.3-0.3-0.2-0.7-0.5-1.7-0.5-1.7-0.2v-1.5h26.9v7.1h-2l-0.2-0.7-0.5-1-1.5-1.7-0.7-0.7-0.7-0.5-0.7-0.5h-0.7l-2-0.2h-7.8v11.5h5.6l1.2-0.3 0.7-0.5 0.7-0.5 0.5-0.7 0.5-1 0.2-1 0.3-0.8h1.7v11.3h-1.7l-0.3-1-0.5-1.2-0.2-0.7-0.5-0.7-1-0.7-0.7-0.2-1.2-0.2H552v8.6l0.2 1.2v1l0.5 0.5v0.2l0.5 0.2 0.7 0.5h1l3.2 0.2h1.9l2.2-0.2h1l1-0.3 1-0.3 0.5-0.2 1.2-1.2 1.2-1.7 1-1.7 0.5-1.2h1.6v-0.2z m36.9 8.6h-9.3l-5.6-7.1-2.7-2.9-2.7-3.2h-3.7v9.8l0.3 0.7 0.2 0.2 0.2 0.3 0.7 0.3 0.5 0.2h1l2 0.2v1.5h-14.7v-1.5l1.7-0.2 1.5-0.2 0.7-0.3 0.2-0.5 0.2-0.5 0.2-0.7v-21.7l-0.2-0.5-0.2-0.2-0.2-0.2-0.7-0.5-1.5-0.2-1.7-0.2v-1.5h15.9l2.2 0.3 2 0.2 1.9 0.5 0.7 0.2 1 0.5 0.5 0.5 0.7 0.5 0.5 0.5 0.5 0.7 0.5 0.5 0.2 1 0.3 0.7v2.4l-0.3 0.8-0.2 0.7-0.5 0.5-0.2 0.7-1.2 1-1.2 0.7-1.5 0.8-1.5 0.5-1.7 0.5 4.2 4.9 4.1 4.6 1 1.2 1 0.7 1.7 0.7 1.7 0.5 1.5 0.2v1.4z m-13-21.7v-1.2l-0.3-1-0.2-0.5-0.5-0.5-0.7-1-1-0.5-1.2-0.5-1.5-0.2-1.5-0.2H584v12.5h3.2l1.7-0.2 1.5-0.2 0.7-0.2 0.5-0.2 1.2-0.7 0.5-0.5 0.5-0.5 0.7-1.2 0.5-1.5V609h0.1z m29.1 22.2h-1.5l-1.5-0.3-1.5-0.2-1.5-0.5-1.5-0.5-1.2-0.7-1.2-0.7-1.2-1-1-1-1-1-0.7-1.2-0.7-1.5-0.7-1.5-0.3-1.5-0.2-1.5v-3.4l0.2-1.7 0.3-1.5 0.7-1.5 0.7-1.5 0.7-1.2 1-1.2 1-1 1.2-1 1.2-0.7 1.5-0.7 1.5-0.7 1.5-0.5 1.5-0.2 1.7-0.2h4.1l1.2 0.2 1 0.2 1.9 0.7 2 0.7 1-1.5h2l0.3 10.5h-2l-0.5-1.7-0.7-1.7-0.7-1.5-0.5-0.7-0.5-0.7-0.7-0.7-0.5-0.5-0.7-0.5-1-0.5-0.7-0.2-1-0.2-1.9-0.2h-1l-1.2 0.2-1 0.2-1.2 0.2-1 0.5-1 0.8-0.7 0.7-0.7 0.7-0.7 1-0.5 1-0.5 1-0.5 1.2-0.5 1.5-0.3 1.2v1.4l-0.2 1.5 0.2 1.5v1.2l0.3 1.2 0.5 1.2 0.5 1.2 0.5 1 0.7 1 0.7 1 0.7 0.7 1 0.7 1 0.7 1 0.5 1 0.5 1.2 0.3 1.2 0.2h1.2l2-0.2 1.7-0.3 1.7-0.7 1.2-0.7 1.2-1 1-1 0.7-1.2 0.7-1.2 2 0.7-1.2 2-1.2 1.7-1.5 1.2-1.7 1.2-2 0.7-1 0.2-1 0.5h-1l-1 0.3h-2.4v0.2z m52.3-0.5h-14.4v-1.5l1.7-0.2h1l0.5-0.2 0.7-0.3 0.5-0.5 0.2-0.5V616.6h-16.4v10l0.3 0.7v0.5l0.5 0.5 0.7 0.3 1.5 0.5 1.7 0.2v1.5h-14.4v-1.5l1.7-0.2h1l0.5-0.2 0.7-0.3 0.5-0.5 0.2-0.5V605.3l-0.2-0.5-0.5-0.5-0.7-0.5-1.5-0.5-1.7-0.2v-1.5H655v1.5l-1.7 0.2-1.5 0.2-0.7 0.5-0.5 0.5v0.5l-0.3 0.7v8.8h16.4v-9.2l-0.2-0.5-0.5-0.5-0.7-0.5-1.5-0.5-1.7-0.2v-1.5h14.4v1.5l-1.7 0.2-1.5 0.2-0.7 0.5-0.5 0.5v0.5l-0.2 0.7v20.7l0.2 0.7v0.5l0.5 0.5 0.7 0.3 1.5 0.5 1.7 0.2v1.6z m36.6 0h-14.4v-1.5l1.7-0.2 1.4-0.2 1-0.3 0.3-0.3v-0.7l-0.3-0.5-2.7-6.3H688l-0.7 1.2-0.5 1.2-0.7 2-0.5 1.4v1.2l0.5 0.2 1 0.7 1.7 0.2 1.7 0.2v1.5h-12.9V629l1.7-0.2 0.7-0.2 0.7-0.3 1-0.7 0.5-0.5 0.5-0.7 0.5-1 2.9-5.6 2.9-6.6 5.6-12h2l11.5 24.9 0.5 0.7 0.5 0.5 0.5 0.5 0.7 0.5 0.7 0.3 0.7 0.2 1.5 0.2v1.7h-0.1z m-13.9-12l-5.1-11.2-5.4 11.2h10.5z m50.3-15.6l-2.2 0.5-1.2 0.2-0.7 0.2-0.5 0.2-0.2 0.5-0.5 1.2-0.2 1.7v23.3h-2.2l-21-23.7v14.9l0.2 2.2 0.2 1.7 0.5 1.2 0.7 0.7 0.7 0.2 1.5 0.5 2.4 0.5v1.5h-14.4v-1.5l1-0.2 1.2-0.2 1.5-0.3 0.5-0.5 0.5-0.2 0.2-0.3 0.3-0.5 0.2-0.7 0.2-1.5 0.3-2.5V608l-0.3-1-0.2-1-0.5-0.7-0.5-0.7-1.2-0.5-1.2-0.7-1.5-0.2-1-0.2v-1.5h9.8l19.6 22.2v-16.1l-0.2-1.7-0.5-1-0.2-0.5-0.5-0.2-1-0.5-1.2-0.2-2.4-0.5v-1.5h14.2v1.6h-0.2z m30.5 6.4h-1.7l-0.2-0.7-0.5-1-0.7-1-0.7-0.8-0.7-1-0.7-0.7-1-0.5-0.3-0.2h-0.5l-2-0.2h-3.5v23.7l0.2 0.7 0.2 0.2 0.2 0.2 0.7 0.3 2 0.5h1.2l1 0.2v1.5h-16.4v-1.5l2-0.2h1.2l0.7-0.2 0.7-0.3 0.5-0.5 0.2-0.7v-23.9H759l-2.2 0.2-0.7 0.2-1 0.5-0.7 0.7-0.7 1-0.7 0.8-0.7 1.2-0.7 1.5h-1.7v-7.8H780v7.8z m24 7.8l0.7 1.2 0.7 1.2 0.5 1.2v1.5l-0.2 2-0.2 0.7-0.2 0.7-0.5 1-0.5 0.5-0.7 0.7-1 0.7-0.7 0.5-1 0.5-1.9 1-2.2 0.2-2.4 0.3-2.4-0.3-2.2-0.2-2.2-0.7-1.7-0.7-1.2 1.5h-2l-0.2-10h2l0.7 1.7 0.7 1.7 1 1.5 1.2 1.2 0.5 0.5 0.7 0.5 1.7 1 0.7 0.2 1 0.2 1 0.3h1.2l1.5-0.3 1.5-0.2 1.2-0.2 0.7-0.7 0.7-0.7 0.5-0.7 0.3-1 0.2-1.2-0.2-0.7-0.3-1-0.2-0.7-0.5-0.7-0.7-0.7-0.7-0.7-2-0.7-3.7-1.2-3.7-1.2-1.5-0.7-1.2-0.5-1-0.8-1-1-0.5-1-0.7-1-0.3-1.2v-2.5l0.3-1 0.2-0.7 0.2-0.7 0.5-0.5 0.5-0.7 0.7-0.7 0.7-0.5 0.7-0.5 0.7-0.5 0.7-0.2 1-0.5 1.9-0.5h4.4l1 0.2 1 0.2 2 0.7 1.5 0.7 1.2-1.5h2v9.8h-2l-1.2-3.2-0.7-1.5-0.5-0.8-0.5-0.5-1.2-1.2-0.5-0.5-0.7-0.2-1-0.2-0.7-0.2-1-0.2h-2.2l-1 0.2-1 0.5-1 0.5-0.7 0.8-0.5 0.7-0.3 0.7v1.7l0.3 0.7 0.2 1 0.5 0.5 0.5 0.8 0.7 0.5 0.7 0.5 1 0.2 2 0.7 1.7 0.7 3.2 1 1.5 0.5 1.5 0.7 1.2 0.7 1.2 0.8z m42 0l1.5 1 0.5 0.5 0.5 0.8 0.5 0.7 0.5 0.7v1l0.3 0.7-0.3 1-0.2 1-0.2 1-0.5 0.7-0.6 0.6-0.7 0.5-0.7 0.7-0.7 0.5-0.7 0.5-1 0.3-2 0.7-2.2 0.2-2.2 0.2h-16.4v-1.5l1.7-0.2 1.7-0.2 0.5-0.5 0.5-0.2 0.3-0.7v-22l-0.3-0.5v-0.3l-0.2-0.2-0.7-0.5-1.7-0.5-1.5-0.2v-1.5h15.9l2 0.3 1.7 0.2 1.7 0.2 1.5 0.7 0.7 0.5 0.7 0.2 0.5 0.7 0.5 0.5 0.5 0.7 0.2 0.5v1l0.2 0.7-0.2 1.5-0.5 1.2-0.7 1.2-0.5 0.5-0.7 0.5-1.2 0.7-1.2 0.5-1.5 0.5-1.7 0.5v0.2h1.5l2 0.5 1.7 0.5 1.2 1.2z m-5.9-4.4l0.7-1 0.5-1 0.2-1.2 0.2-1.2-0.2-1.2-0.2-1-0.5-0.7-0.7-0.7-0.7-0.8-1.2-0.5-1.5-0.2h-5.5v11.2h3.2l1.7-0.2 1.7-0.3 0.5-0.2 0.7-0.2 1.1-0.8z m3.4 9l-0.2-1.2-0.2-1-0.3-0.5-0.5-0.5-0.5-0.5-0.5-0.5-1-0.7-1.5-0.5-1.5-0.3-2-0.2-2.7 0.2h-1.5v10.7l0.2 0.5 0.5 0.5 0.5 0.2 0.7 0.5h0.7l1 0.2h2.7l1.5-0.5 0.7-0.3 0.7-0.2 1-0.7 0.7-1 0.7-1.2 0.2-0.7v-0.7l0.6-1.6z m42.5 8.8h-14.4v-1.5l1.7-0.2 1.5-0.2 0.7-0.3 0.2-0.3 0.3-0.2v-0.5l-0.3-0.5-2.9-6.3h-12.2l-0.5 1.2-0.5 1.2-0.7 2-0.5 1.4-0.3 0.7 0.3 0.5 0.2 0.2 1.2 0.7 1.5 0.2 2 0.2v1.5h-13.2V629l1.7-0.2 1-0.2 0.5-0.3 1-0.7 0.7-0.5 0.5-0.7 0.5-1 2.7-5.6 3.2-6.6 5.6-12h1.9l11.5 24.9 0.3 0.7 0.5 0.5 0.7 0.5 0.7 0.5 0.5 0.3 1 0.2 1.5 0.2v1.7h-0.1z m-13.9-12l-5.4-11.2-5.1 11.2h10.5z m50.1-15.6l-2 0.5-1.2 0.2-0.7 0.2-0.5 0.2-0.2 0.5-0.5 1.2-0.2 1.7-0.2 2v21.3h-2l-21-23.7v17.1l0.2 1.7 0.5 1.2 0.7 0.7 1 0.2 1.5 0.5 2.2 0.5v1.5h-14.2v-1.5l0.7-0.2 1.5-0.2 1.2-0.3 0.7-0.5 0.5-0.2 0.2-0.3 0.2-0.5 0.3-0.7 0.2-1.5V607l-0.5-1-0.2-0.7-0.7-0.7-1-0.5-1.5-0.7-1.2-0.2-1.2-0.2v-1.5h10l19.5 22.2v-13.9l-0.2-2.2-0.2-1.7-0.5-1-0.2-0.5-0.2-0.2-1-0.5-1.5-0.2-2.2-0.5v-1.5h13.9v1.6z m36.1 27.6h-9.8l-1.5-1.9-1.5-1.7-3.4-3.7-3.4-3.4-3.6-3.4h-0.7v10l0.2 0.7v0.5l0.5 0.5 0.7 0.3 1.5 0.5 1.7 0.2v1.5h-14.4v-1.5l1.7-0.2h1l0.5-0.2 0.7-0.3 0.5-0.5 0.3-0.5V605.3l-0.3-0.5-0.2-0.3-0.2-0.2-0.7-0.5-1.5-0.5-1.7-0.2v-1.5H939v1.5l-1.7 0.2-1.5 0.2-0.7 0.5-0.5 0.5v0.5l-0.2 0.7v10h0.5l2.2-1.7 2.2-1.7 1-0.7 1-1 2-1.5 1.7-1.7 1-1.2 0.7-1.2 0.2-0.5v-0.7l-0.5-0.2-1-0.2h-1.2l-1-0.2v-1.5h13.2v1.5h-0.5l-0.5 0.2H954l-1.9 0.7-0.7 0.2-0.7 0.5-5.1 4.9-2.9 2.4-2.7 2.2 3.4 3.4 2.7 2.7 5.4 5.3 1 1 1 0.7 2 1 1.5 0.5 1.7 0.2v1.6h-0.4z" fill="#231815" p-id="4434"></path></svg>